<?xml version="1.0" encoding="UTF-8" standalone="no"?>
<!DOCTYPE svg PUBLIC "-//W3C//DTD SVG 1.1//EN"
 "http://www.w3.org/Graphics/SVG/1.1/DTD/svg11.dtd">
<!-- Generated by graphviz version 2.38.0 (20140413.2041)
 -->
<!-- Title: g Pages: 1 -->
<svg width="381pt" height="105pt"
 viewBox="0.00 0.00 380.99 105.00" xmlns="http://www.w3.org/2000/svg" xmlns:xlink="http://www.w3.org/1999/xlink">
<g id="graph0" class="graph" transform="scale(1 1) rotate(0) translate(4 101)">
<title>g</title>
<polygon fill="white" stroke="none" points="-4,4 -4,-101 376.985,-101 376.985,4 -4,4"/>
<!-- ok -->
<g id="node1" class="node"><title>ok</title>
<ellipse fill="none" stroke="green" cx="345.985" cy="-18" rx="27" ry="18"/>
<text text-anchor="middle" x="345.985" y="-14.3" font-family="Times,serif" font-size="14.00">Ok</text>
</g>
<!-- ko -->
<g id="node2" class="node"><title>ko</title>
<ellipse fill="none" stroke="red" cx="345.985" cy="-79" rx="27" ry="18"/>
<text text-anchor="middle" x="345.985" y="-75.3" font-family="Times,serif" font-size="14.00">Ko</text>
</g>
<!-- start -->
<g id="node3" class="node"><title>start</title>
<ellipse fill="none" stroke="black" cx="27.2976" cy="-56" rx="27.0966" ry="18"/>
<text text-anchor="middle" x="27.2976" y="-52.3" font-family="Times,serif" font-size="14.00">Start</text>
</g>
<!-- orgapachecommonscollectionsiteratorsFilterListIterator23069186901 -->
<g id="node4" class="node"><title>orgapachecommonscollectionsiteratorsFilterListIterator23069186901</title>
<ellipse fill="none" stroke="black" cx="133.193" cy="-56" rx="28.6953" ry="18"/>
<text text-anchor="middle" x="133.193" y="-52.3" font-family="Times,serif" font-size="14.00">DP 1</text>
</g>
<!-- start&#45;&gt;orgapachecommonscollectionsiteratorsFilterListIterator23069186901 -->
<g id="edge1" class="edge"><title>start&#45;&gt;orgapachecommonscollectionsiteratorsFilterListIterator23069186901</title>
<path fill="none" stroke="green" d="M54.7835,-56C66.738,-56 81.0826,-56 94.1577,-56"/>
<polygon fill="green" stroke="green" points="94.3016,-59.5001 104.302,-56 94.3015,-52.5001 94.3016,-59.5001"/>
<text text-anchor="middle" x="79.5952" y="-59.8" font-family="Times,serif" font-size="14.00">16</text>
</g>
<!-- start&#45;&gt;orgapachecommonscollectionsiteratorsFilterListIterator23069186901 -->
<g id="edge2" class="edge"><title>start&#45;&gt;orgapachecommonscollectionsiteratorsFilterListIterator23069186901</title>
<path fill="none" stroke="red" stroke-width="3" d="M49.3575,-44.9059C56.5294,-41.6924 64.7261,-38.6164 72.5952,-37 82.4642,-34.9728 93.0072,-36.9102 102.44,-40.2049"/>
<polygon fill="red" stroke="red" stroke-width="3" points="101.211,-43.4837 111.792,-44.0204 103.855,-37.0023 101.211,-43.4837"/>
<text text-anchor="middle" x="79.5952" y="-40.8" font-family="Times,serif" font-size="14.00">29</text>
</g>
<!-- orgapachecommonscollectionsiteratorsFilterListIterator23069186901&#45;&gt;ko -->
<g id="edge3" class="edge"><title>orgapachecommonscollectionsiteratorsFilterListIterator23069186901&#45;&gt;ko</title>
<path fill="none" stroke="red" d="M161.68,-59.0172C167.65,-59.6717 173.932,-60.3596 179.79,-61 224.3,-65.8653 275.559,-71.4473 309.023,-75.0887"/>
<polygon fill="red" stroke="red" points="308.912,-78.5972 319.232,-76.1994 309.669,-71.6382 308.912,-78.5972"/>
<text text-anchor="middle" x="240.388" y="-73.8" font-family="Times,serif" font-size="14.00">9</text>
</g>
<!-- orgapachecommonscollectionsiteratorsFilterListIterator25977267705 -->
<g id="node5" class="node"><title>orgapachecommonscollectionsiteratorsFilterListIterator25977267705</title>
<ellipse fill="none" stroke="black" cx="240.388" cy="-25" rx="28.6953" ry="18"/>
<text text-anchor="middle" x="240.388" y="-21.3" font-family="Times,serif" font-size="14.00">DP 2</text>
</g>
<!-- orgapachecommonscollectionsiteratorsFilterListIterator23069186901&#45;&gt;orgapachecommonscollectionsiteratorsFilterListIterator25977267705 -->
<g id="edge4" class="edge"><title>orgapachecommonscollectionsiteratorsFilterListIterator23069186901&#45;&gt;orgapachecommonscollectionsiteratorsFilterListIterator25977267705</title>
<path fill="none" stroke="green" d="M159.389,-48.5747C172.823,-44.6161 189.564,-39.6826 204.255,-35.3534"/>
<polygon fill="green" stroke="green" points="205.429,-38.6562 214.032,-32.4721 203.45,-31.9417 205.429,-38.6562"/>
<text text-anchor="middle" x="186.79" y="-45.8" font-family="Times,serif" font-size="14.00">16</text>
</g>
<!-- orgapachecommonscollectionsiteratorsFilterListIterator23069186901&#45;&gt;orgapachecommonscollectionsiteratorsFilterListIterator25977267705 -->
<g id="edge5" class="edge"><title>orgapachecommonscollectionsiteratorsFilterListIterator23069186901&#45;&gt;orgapachecommonscollectionsiteratorsFilterListIterator25977267705</title>
<path fill="none" stroke="red" stroke-width="2" d="M148.16,-40.3883C156.449,-32.3242 167.684,-23.2939 179.79,-19 187.439,-16.2869 195.964,-15.7858 204.119,-16.4001"/>
<polygon fill="red" stroke="red" stroke-width="2" points="203.793,-19.8869 214.158,-17.6922 204.686,-12.9441 203.793,-19.8869"/>
<text text-anchor="middle" x="186.79" y="-22.8" font-family="Times,serif" font-size="14.00">20</text>
</g>
<!-- orgapachecommonscollectionsiteratorsFilterListIterator25977267705&#45;&gt;ok -->
<g id="edge6" class="edge"><title>orgapachecommonscollectionsiteratorsFilterListIterator25977267705&#45;&gt;ok</title>
<path fill="none" stroke="green" d="M268.34,-20.9382C274.456,-20.16 280.933,-19.4489 286.985,-19 294.084,-18.4734 301.685,-18.1614 308.97,-17.9856"/>
<polygon fill="green" stroke="green" points="309.031,-21.4852 318.971,-17.8196 308.915,-14.4861 309.031,-21.4852"/>
<text text-anchor="middle" x="293.985" y="-22.8" font-family="Times,serif" font-size="14.00">16</text>
</g>
<!-- orgapachecommonscollectionsiteratorsFilterListIterator25977267705&#45;&gt;ko -->
<g id="edge7" class="edge"><title>orgapachecommonscollectionsiteratorsFilterListIterator25977267705&#45;&gt;ko</title>
<path fill="none" stroke="red" stroke-width="2" d="M262.853,-36.1888C277.914,-44.0394 298.258,-54.6435 314.93,-63.3337"/>
<polygon fill="red" stroke="red" stroke-width="2" points="313.769,-66.6754 324.254,-68.194 317.004,-60.468 313.769,-66.6754"/>
<text text-anchor="middle" x="293.985" y="-58.8" font-family="Times,serif" font-size="14.00">20</text>
</g>
</g>
</svg>
