<?xml version="1.0" encoding="UTF-8" standalone="no"?>
<!DOCTYPE svg PUBLIC "-//W3C//DTD SVG 1.1//EN"
 "http://www.w3.org/Graphics/SVG/1.1/DTD/svg11.dtd">
<!-- Generated by graphviz version 2.38.0 (20140413.2041)
 -->
<!-- Title: g Pages: 1 -->
<svg width="402pt" height="187pt"
 viewBox="0.00 0.00 401.99 187.12" xmlns="http://www.w3.org/2000/svg" xmlns:xlink="http://www.w3.org/1999/xlink">
<g id="graph0" class="graph" transform="scale(1 1) rotate(0) translate(4 183.119)">
<title>g</title>
<polygon fill="white" stroke="none" points="-4,4 -4,-183.119 397.985,-183.119 397.985,4 -4,4"/>
<!-- ok -->
<g id="node1" class="node"><title>ok</title>
<ellipse fill="none" stroke="green" cx="366.985" cy="-149.119" rx="27" ry="18"/>
<text text-anchor="middle" x="366.985" y="-145.419" font-family="Times,serif" font-size="14.00">Ok</text>
</g>
<!-- ko -->
<g id="node2" class="node"><title>ko</title>
<ellipse fill="none" stroke="red" cx="366.985" cy="-53.1186" rx="27" ry="18"/>
<text text-anchor="middle" x="366.985" y="-49.4186" font-family="Times,serif" font-size="14.00">Ko</text>
</g>
<!-- start -->
<g id="node3" class="node"><title>start</title>
<ellipse fill="none" stroke="black" cx="27.2976" cy="-81.1186" rx="27.0966" ry="18"/>
<text text-anchor="middle" x="27.2976" y="-77.4186" font-family="Times,serif" font-size="14.00">Start</text>
</g>
<!-- orgapachecommonslang3StringUtils3298136976136949 -->
<g id="node4" class="node"><title>orgapachecommonslang3StringUtils3298136976136949</title>
<ellipse fill="none" stroke="black" cx="140.193" cy="-133.119" rx="28.6953" ry="18"/>
<text text-anchor="middle" x="140.193" y="-129.419" font-family="Times,serif" font-size="14.00">DP 1</text>
</g>
<!-- start&#45;&gt;orgapachecommonslang3StringUtils3298136976136949 -->
<g id="edge1" class="edge"><title>start&#45;&gt;orgapachecommonslang3StringUtils3298136976136949</title>
<path fill="none" stroke="green" d="M43.5938,-95.8423C51.6602,-102.888 62.0525,-110.904 72.5952,-116.119 81.9008,-120.721 92.5731,-124.159 102.608,-126.692"/>
<polygon fill="green" stroke="green" points="101.827,-130.103 112.357,-128.933 103.396,-123.281 101.827,-130.103"/>
<text text-anchor="middle" x="83.0952" y="-127.919" font-family="Times,serif" font-size="14.00">54</text>
</g>
<!-- start&#45;&gt;orgapachecommonslang3StringUtils3298136976136949 -->
<g id="edge2" class="edge"><title>start&#45;&gt;orgapachecommonslang3StringUtils3298136976136949</title>
<path fill="none" stroke="red" d="M54.2918,-84.847C66.6307,-87.2688 81.3244,-91.1258 93.5952,-97.1186 101.37,-100.915 109.053,-106.21 115.835,-111.572"/>
<polygon fill="red" stroke="red" points="113.962,-114.568 123.88,-118.292 118.449,-109.195 113.962,-114.568"/>
<text text-anchor="middle" x="83.0952" y="-100.919" font-family="Times,serif" font-size="14.00">126</text>
</g>
<!-- orgapachecommonslang3StringUtils3385140430140403 -->
<g id="node6" class="node"><title>orgapachecommonslang3StringUtils3385140430140403</title>
<ellipse fill="none" stroke="black" cx="140.193" cy="-28.1186" rx="28.6953" ry="18"/>
<text text-anchor="middle" x="140.193" y="-24.4186" font-family="Times,serif" font-size="14.00">DP 3</text>
</g>
<!-- start&#45;&gt;orgapachecommonslang3StringUtils3385140430140403 -->
<g id="edge8" class="edge"><title>start&#45;&gt;orgapachecommonslang3StringUtils3385140430140403</title>
<path fill="none" stroke="green" d="M49.9425,-70.7738C66.3673,-62.9239 89.1913,-52.0157 107.646,-43.1954"/>
<polygon fill="green" stroke="green" points="109.329,-46.2706 116.842,-38.8006 106.31,-39.9549 109.329,-46.2706"/>
<text text-anchor="middle" x="83.0952" y="-62.9186" font-family="Times,serif" font-size="14.00">76</text>
</g>
<!-- start&#45;&gt;orgapachecommonslang3StringUtils3385140430140403 -->
<g id="edge9" class="edge"><title>start&#45;&gt;orgapachecommonslang3StringUtils3385140430140403</title>
<path fill="none" stroke="red" stroke-width="2" d="M37.7136,-64.2809C45.3957,-52.3759 57.442,-37.3046 72.5952,-30.1186 81.5933,-25.8514 92.0714,-24.2282 102.016,-23.9532"/>
<polygon fill="red" stroke="red" stroke-width="2" points="102.053,-27.454 112.103,-24.1003 102.155,-20.4547 102.053,-27.454"/>
<text text-anchor="middle" x="83.0952" y="-33.9186" font-family="Times,serif" font-size="14.00">203</text>
</g>
<!-- orgapachecommonslang3StringUtils3298136976136949&#45;&gt;ko -->
<g id="edge3" class="edge"><title>orgapachecommonslang3StringUtils3298136976136949&#45;&gt;ko</title>
<path fill="none" stroke="red" d="M166.995,-126.691C215.243,-114.633 314.918,-89.5229 321.985,-86.1186 328.964,-82.7568 335.938,-78.2117 342.21,-73.5709"/>
<polygon fill="red" stroke="red" points="344.533,-76.1979 350.261,-67.2854 340.225,-70.6801 344.533,-76.1979"/>
<text text-anchor="middle" x="254.388" y="-114.919" font-family="Times,serif" font-size="14.00">36</text>
</g>
<!-- orgapachecommonslang3StringUtils3298136985136949 -->
<g id="node5" class="node"><title>orgapachecommonslang3StringUtils3298136985136949</title>
<ellipse fill="none" stroke="black" cx="254.388" cy="-161.119" rx="28.6953" ry="18"/>
<text text-anchor="middle" x="254.388" y="-157.419" font-family="Times,serif" font-size="14.00">DP 2</text>
</g>
<!-- orgapachecommonslang3StringUtils3298136976136949&#45;&gt;orgapachecommonslang3StringUtils3298136985136949 -->
<g id="edge4" class="edge"><title>orgapachecommonslang3StringUtils3298136976136949&#45;&gt;orgapachecommonslang3StringUtils3298136985136949</title>
<path fill="none" stroke="green" d="M165.107,-142.314C172.033,-144.757 179.651,-147.236 186.79,-149.119 196.217,-151.605 206.53,-153.74 216.165,-155.491"/>
<polygon fill="green" stroke="green" points="215.829,-158.985 226.278,-157.238 217.02,-152.087 215.829,-158.985"/>
<text text-anchor="middle" x="197.29" y="-156.919" font-family="Times,serif" font-size="14.00">54</text>
</g>
<!-- orgapachecommonslang3StringUtils3298136976136949&#45;&gt;orgapachecommonslang3StringUtils3298136985136949 -->
<g id="edge5" class="edge"><title>orgapachecommonslang3StringUtils3298136976136949&#45;&gt;orgapachecommonslang3StringUtils3298136985136949</title>
<path fill="none" stroke="red" d="M167.647,-127.865C180.081,-126.416 194.958,-126.17 207.79,-130.119 215.086,-132.364 222.262,-136.219 228.684,-140.462"/>
<polygon fill="red" stroke="red" points="226.751,-143.383 236.914,-146.376 230.835,-137.698 226.751,-143.383"/>
<text text-anchor="middle" x="197.29" y="-133.919" font-family="Times,serif" font-size="14.00">90</text>
</g>
<!-- orgapachecommonslang3StringUtils3298136985136949&#45;&gt;ok -->
<g id="edge7" class="edge"><title>orgapachecommonslang3StringUtils3298136985136949&#45;&gt;ok</title>
<path fill="none" stroke="green" d="M282.726,-158.152C296.967,-156.607 314.565,-154.698 329.908,-153.033"/>
<polygon fill="green" stroke="green" points="330.537,-156.485 340.101,-151.927 329.781,-149.526 330.537,-156.485"/>
<text text-anchor="middle" x="311.485" y="-158.919" font-family="Times,serif" font-size="14.00">54</text>
</g>
<!-- orgapachecommonslang3StringUtils3298136985136949&#45;&gt;ko -->
<g id="edge6" class="edge"><title>orgapachecommonslang3StringUtils3298136985136949&#45;&gt;ko</title>
<path fill="none" stroke="red" d="M275.179,-148.418C289.064,-139.011 307.637,-125.395 321.985,-111.119 332.095,-101.059 341.84,-88.5999 349.579,-77.8101"/>
<polygon fill="red" stroke="red" points="352.462,-79.794 355.323,-69.5927 346.725,-75.7833 352.462,-79.794"/>
<text text-anchor="middle" x="311.485" y="-132.919" font-family="Times,serif" font-size="14.00">90</text>
</g>
<!-- orgapachecommonslang3StringUtils3385140430140403&#45;&gt;ko -->
<g id="edge14" class="edge"><title>orgapachecommonslang3StringUtils3385140430140403&#45;&gt;ko</title>
<path fill="none" stroke="red" d="M164.086,-18.2204C192.369,-7.36267 241.798,7.12176 282.985,-4.1186 304.097,-9.8803 325.3,-22.5432 340.991,-33.5525"/>
<polygon fill="red" stroke="red" points="338.957,-36.4011 349.105,-39.4443 343.07,-30.7367 338.957,-36.4011"/>
<text text-anchor="middle" x="254.388" y="-7.9186" font-family="Times,serif" font-size="14.00">37</text>
</g>
<!-- orgapachecommonslang3StringUtils3385140439140403 -->
<g id="node7" class="node"><title>orgapachecommonslang3StringUtils3385140439140403</title>
<ellipse fill="none" stroke="black" cx="254.388" cy="-46.1186" rx="28.6953" ry="18"/>
<text text-anchor="middle" x="254.388" y="-42.4186" font-family="Times,serif" font-size="14.00">DP 4</text>
</g>
<!-- orgapachecommonslang3StringUtils3385140430140403&#45;&gt;orgapachecommonslang3StringUtils3385140439140403 -->
<g id="edge10" class="edge"><title>orgapachecommonslang3StringUtils3385140430140403&#45;&gt;orgapachecommonslang3StringUtils3385140439140403</title>
<path fill="none" stroke="green" d="M168.946,-26.4339C180.98,-26.2426 195.176,-26.7457 207.79,-29.1186 212.206,-29.9493 216.756,-31.1687 221.192,-32.5793"/>
<polygon fill="green" stroke="green" points="220.034,-35.8821 230.629,-35.8964 222.355,-29.2782 220.034,-35.8821"/>
<text text-anchor="middle" x="197.29" y="-32.9186" font-family="Times,serif" font-size="14.00">76</text>
</g>
<!-- orgapachecommonslang3StringUtils3385140430140403&#45;&gt;orgapachecommonslang3StringUtils3385140439140403 -->
<g id="edge11" class="edge"><title>orgapachecommonslang3StringUtils3385140430140403&#45;&gt;orgapachecommonslang3StringUtils3385140439140403</title>
<path fill="none" stroke="red" d="M164.482,-37.8362C171.527,-40.3519 179.367,-42.739 186.79,-44.1186 195.962,-45.8231 205.964,-46.6522 215.364,-46.9882"/>
<polygon fill="red" stroke="red" points="215.58,-50.4927 225.644,-47.1785 215.71,-43.4939 215.58,-50.4927"/>
<text text-anchor="middle" x="197.29" y="-49.9186" font-family="Times,serif" font-size="14.00">166</text>
</g>
<!-- orgapachecommonslang3StringUtils3385140439140403&#45;&gt;ok -->
<g id="edge13" class="edge"><title>orgapachecommonslang3StringUtils3385140439140403&#45;&gt;ok</title>
<path fill="none" stroke="green" d="M274.694,-58.8123C288.518,-68.3201 307.222,-82.0603 321.985,-96.1186 331.229,-104.921 340.413,-115.597 347.981,-125.053"/>
<polygon fill="green" stroke="green" points="345.257,-127.252 354.176,-132.972 350.771,-122.939 345.257,-127.252"/>
<text text-anchor="middle" x="311.485" y="-99.9186" font-family="Times,serif" font-size="14.00">76</text>
</g>
<!-- orgapachecommonslang3StringUtils3385140439140403&#45;&gt;ko -->
<g id="edge12" class="edge"><title>orgapachecommonslang3StringUtils3385140439140403&#45;&gt;ko</title>
<path fill="none" stroke="red" d="M279.169,-36.7541C291.896,-32.9324 307.824,-30.0511 321.985,-33.1186 326.757,-34.1522 331.633,-35.7492 336.319,-37.6001"/>
<polygon fill="red" stroke="red" points="335.012,-40.849 345.576,-41.6567 337.822,-34.4375 335.012,-40.849"/>
<text text-anchor="middle" x="311.485" y="-36.9186" font-family="Times,serif" font-size="14.00">166</text>
</g>
</g>
</svg>
