<?xml version="1.0" encoding="UTF-8" standalone="no"?>
<!DOCTYPE svg PUBLIC "-//W3C//DTD SVG 1.1//EN"
 "http://www.w3.org/Graphics/SVG/1.1/DTD/svg11.dtd">
<!-- Generated by graphviz version 2.38.0 (20140413.2041)
 -->
<!-- Title: g Pages: 1 -->
<svg width="260pt" height="98pt"
 viewBox="0.00 0.00 259.79 98.00" xmlns="http://www.w3.org/2000/svg" xmlns:xlink="http://www.w3.org/1999/xlink">
<g id="graph0" class="graph" transform="scale(1 1) rotate(0) translate(4 94)">
<title>g</title>
<polygon fill="white" stroke="none" points="-4,4 -4,-94 255.79,-94 255.79,4 -4,4"/>
<!-- ok -->
<g id="node1" class="node"><title>ok</title>
<ellipse fill="none" stroke="green" cx="224.79" cy="-18" rx="27" ry="18"/>
<text text-anchor="middle" x="224.79" y="-14.3" font-family="Times,serif" font-size="14.00">Ok</text>
</g>
<!-- ko -->
<g id="node2" class="node"><title>ko</title>
<ellipse fill="none" stroke="red" cx="27.2976" cy="-72" rx="27" ry="18"/>
<text text-anchor="middle" x="27.2976" y="-68.3" font-family="Times,serif" font-size="14.00">Ko</text>
</g>
<!-- start -->
<g id="node3" class="node"><title>start</title>
<ellipse fill="none" stroke="black" cx="27.2976" cy="-18" rx="27.0966" ry="18"/>
<text text-anchor="middle" x="27.2976" y="-14.3" font-family="Times,serif" font-size="14.00">Start</text>
</g>
<!-- orgapachecommonsmath3geometrypartitioningBSPTree3011117711138 -->
<g id="node4" class="node"><title>orgapachecommonsmath3geometrypartitioningBSPTree3011117711138</title>
<ellipse fill="none" stroke="black" cx="126.193" cy="-18" rx="28.6953" ry="18"/>
<text text-anchor="middle" x="126.193" y="-14.3" font-family="Times,serif" font-size="14.00">DP 1</text>
</g>
<!-- start&#45;&gt;orgapachecommonsmath3geometrypartitioningBSPTree3011117711138 -->
<g id="edge1" class="edge"><title>start&#45;&gt;orgapachecommonsmath3geometrypartitioningBSPTree3011117711138</title>
<path fill="none" stroke="green" stroke-width="5" d="M54.7746,-18C64.7957,-18 76.4079,-18 87.277,-18"/>
<polygon fill="green" stroke="green" stroke-width="5" points="87.394,-22.3751 97.3939,-18 87.3939,-13.6251 87.394,-22.3751"/>
<text text-anchor="middle" x="76.0952" y="-21.8" font-family="Times,serif" font-size="14.00">5</text>
</g>
<!-- orgapachecommonsmath3geometrypartitioningBSPTree3011117711138&#45;&gt;ok -->
<g id="edge2" class="edge"><title>orgapachecommonsmath3geometrypartitioningBSPTree3011117711138&#45;&gt;ok</title>
<path fill="none" stroke="green" stroke-width="5" d="M154.874,-18C165.098,-18 176.839,-18 187.7,-18"/>
<polygon fill="green" stroke="green" stroke-width="5" points="187.764,-22.3751 197.764,-18 187.764,-13.6251 187.764,-22.3751"/>
<text text-anchor="middle" x="176.29" y="-21.8" font-family="Times,serif" font-size="14.00">5</text>
</g>
</g>
</svg>
