<?xml version="1.0" encoding="UTF-8" standalone="no"?>
<!DOCTYPE svg PUBLIC "-//W3C//DTD SVG 1.1//EN"
 "http://www.w3.org/Graphics/SVG/1.1/DTD/svg11.dtd">
<!-- Generated by graphviz version 2.38.0 (20140413.2041)
 -->
<!-- Title: g Pages: 1 -->
<svg width="516pt" height="149pt"
 viewBox="0.00 0.00 516.18 149.00" xmlns="http://www.w3.org/2000/svg" xmlns:xlink="http://www.w3.org/1999/xlink">
<g id="graph0" class="graph" transform="scale(1 1) rotate(0) translate(4 145)">
<title>g</title>
<polygon fill="white" stroke="none" points="-4,4 -4,-145 512.18,-145 512.18,4 -4,4"/>
<!-- ok -->
<g id="node1" class="node"><title>ok</title>
<ellipse fill="none" stroke="green" cx="481.18" cy="-123" rx="27" ry="18"/>
<text text-anchor="middle" x="481.18" y="-119.3" font-family="Times,serif" font-size="14.00">Ok</text>
</g>
<!-- ko -->
<g id="node2" class="node"><title>ko</title>
<ellipse fill="none" stroke="red" cx="481.18" cy="-18" rx="27" ry="18"/>
<text text-anchor="middle" x="481.18" y="-14.3" font-family="Times,serif" font-size="14.00">Ko</text>
</g>
<!-- start -->
<g id="node3" class="node"><title>start</title>
<ellipse fill="none" stroke="black" cx="27.2976" cy="-72" rx="27.0966" ry="18"/>
<text text-anchor="middle" x="27.2976" y="-68.3" font-family="Times,serif" font-size="14.00">Start</text>
</g>
<!-- orgapachecommonsmath3geometryeuclideantwodLine18272437235 -->
<g id="node4" class="node"><title>orgapachecommonsmath3geometryeuclideantwodLine18272437235</title>
<ellipse fill="none" stroke="black" cx="140.193" cy="-72" rx="28.6953" ry="18"/>
<text text-anchor="middle" x="140.193" y="-68.3" font-family="Times,serif" font-size="14.00">DP 1</text>
</g>
<!-- start&#45;&gt;orgapachecommonsmath3geometryeuclideantwodLine18272437235 -->
<g id="edge1" class="edge"><title>start&#45;&gt;orgapachecommonsmath3geometryeuclideantwodLine18272437235</title>
<path fill="none" stroke="green" stroke-width="3" d="M54.8597,-72C68.7083,-72 85.8922,-72 101.128,-72"/>
<polygon fill="green" stroke="green" stroke-width="3" points="101.3,-75.5001 111.3,-72 101.3,-68.5001 101.3,-75.5001"/>
<text text-anchor="middle" x="83.0952" y="-75.8" font-family="Times,serif" font-size="14.00">383</text>
</g>
<!-- start&#45;&gt;orgapachecommonsmath3geometryeuclideantwodLine18272437235 -->
<g id="edge2" class="edge"><title>start&#45;&gt;orgapachecommonsmath3geometryeuclideantwodLine18272437235</title>
<path fill="none" stroke="red" d="M49.3575,-60.9059C56.5294,-57.6924 64.7261,-54.6164 72.5952,-53 84.5282,-50.5488 97.4475,-53.0142 108.703,-56.8882"/>
<polygon fill="red" stroke="red" points="107.512,-60.1804 118.1,-60.5672 110.064,-53.6622 107.512,-60.1804"/>
<text text-anchor="middle" x="83.0952" y="-56.8" font-family="Times,serif" font-size="14.00">193</text>
</g>
<!-- orgapachecommonsmath3geometryeuclideantwodLine18272437235&#45;&gt;ok -->
<g id="edge3" class="edge"><title>orgapachecommonsmath3geometryeuclideantwodLine18272437235&#45;&gt;ok</title>
<path fill="none" stroke="green" d="M164.123,-82.3843C171.292,-85.4056 179.291,-88.5488 186.79,-91 253.368,-112.761 270.488,-119.257 339.985,-128 373.147,-132.172 381.758,-128.778 415.18,-129 424.513,-129.062 426.868,-129.632 436.18,-129 438.899,-128.815 441.705,-128.568 444.524,-128.277"/>
<polygon fill="green" stroke="green" points="445.128,-131.73 454.647,-127.078 444.304,-124.779 445.128,-131.73"/>
<text text-anchor="middle" x="311.485" y="-128.8" font-family="Times,serif" font-size="14.00">5</text>
</g>
<!-- orgapachecommonsmath3geometryeuclideantwodLine18272437235&#45;&gt;ko -->
<g id="edge12" class="edge"><title>orgapachecommonsmath3geometryeuclideantwodLine18272437235&#45;&gt;ko</title>
<path fill="none" stroke="red" d="M161.654,-60.0952C169.368,-55.9117 178.326,-51.4092 186.79,-48 235.794,-28.2617 248.776,-23.0763 300.985,-15 318.12,-12.3493 322.649,-14.3375 339.985,-14 373.402,-13.3494 381.758,-13.2222 415.18,-13 424.513,-12.9379 426.862,-12.4722 436.18,-13 438.893,-13.1536 441.695,-13.3602 444.511,-13.6021"/>
<polygon fill="red" stroke="red" points="444.333,-17.1014 454.628,-14.6015 445.021,-10.1353 444.333,-17.1014"/>
<text text-anchor="middle" x="311.485" y="-18.8" font-family="Times,serif" font-size="14.00">13</text>
</g>
<!-- orgapachecommonsmath3geometryeuclideantwodLine18272617253 -->
<g id="node5" class="node"><title>orgapachecommonsmath3geometryeuclideantwodLine18272617253</title>
<ellipse fill="none" stroke="black" cx="254.388" cy="-72" rx="28.6953" ry="18"/>
<text text-anchor="middle" x="254.388" y="-68.3" font-family="Times,serif" font-size="14.00">DP 2</text>
</g>
<!-- orgapachecommonsmath3geometryeuclideantwodLine18272437235&#45;&gt;orgapachecommonsmath3geometryeuclideantwodLine18272617253 -->
<g id="edge4" class="edge"><title>orgapachecommonsmath3geometryeuclideantwodLine18272437235&#45;&gt;orgapachecommonsmath3geometryeuclideantwodLine18272617253</title>
<path fill="none" stroke="green" stroke-width="3" d="M168.926,-72C182.951,-72 200.185,-72 215.42,-72"/>
<polygon fill="green" stroke="green" stroke-width="3" points="215.584,-75.5001 225.584,-72 215.584,-68.5001 215.584,-75.5001"/>
<text text-anchor="middle" x="197.29" y="-75.8" font-family="Times,serif" font-size="14.00">378</text>
</g>
<!-- orgapachecommonsmath3geometryeuclideantwodLine18272437235&#45;&gt;orgapachecommonsmath3geometryeuclideantwodLine18272617253 -->
<g id="edge5" class="edge"><title>orgapachecommonsmath3geometryeuclideantwodLine18272437235&#45;&gt;orgapachecommonsmath3geometryeuclideantwodLine18272617253</title>
<path fill="none" stroke="red" d="M162.902,-60.9039C170.287,-57.6902 178.717,-54.6147 186.79,-53 195.942,-51.1695 198.638,-51.1695 207.79,-53 212.583,-53.9587 217.503,-55.4325 222.254,-57.1443"/>
<polygon fill="red" stroke="red" points="221.093,-60.4492 231.678,-60.9039 223.687,-53.9475 221.093,-60.4492"/>
<text text-anchor="middle" x="197.29" y="-56.8" font-family="Times,serif" font-size="14.00">180</text>
</g>
<!-- orgapachecommonsmath3geometryeuclideantwodLine18272617253&#45;&gt;ok -->
<g id="edge11" class="edge"><title>orgapachecommonsmath3geometryeuclideantwodLine18272617253&#45;&gt;ok</title>
<path fill="none" stroke="green" d="M278.802,-81.5954C285.851,-84.2479 293.661,-86.9558 300.985,-89 349.98,-102.675 408.047,-112.576 444.507,-118.054"/>
<polygon fill="green" stroke="green" points="444.24,-121.553 454.643,-119.547 445.26,-114.627 444.24,-121.553"/>
<text text-anchor="middle" x="368.582" y="-112.8" font-family="Times,serif" font-size="14.00">198</text>
</g>
<!-- orgapachecommonsmath3geometryeuclideantwodLine18272617253&#45;&gt;ko -->
<g id="edge6" class="edge"><title>orgapachecommonsmath3geometryeuclideantwodLine18272617253&#45;&gt;ko</title>
<path fill="none" stroke="red" d="M274.212,-58.9599C290.729,-48.2812 315.819,-33.8571 339.985,-27 374.36,-17.2458 415.307,-15.7085 444.045,-16.1778"/>
<polygon fill="red" stroke="red" points="443.96,-19.6767 454.045,-16.43 444.137,-12.6789 443.96,-19.6767"/>
<text text-anchor="middle" x="368.582" y="-30.8" font-family="Times,serif" font-size="14.00">36</text>
</g>
<!-- orgapachecommonsmath3geometryeuclideanonedOrientedPoint5821722148 -->
<g id="node6" class="node"><title>orgapachecommonsmath3geometryeuclideanonedOrientedPoint5821722148</title>
<ellipse fill="none" stroke="black" cx="368.582" cy="-69" rx="28.6953" ry="18"/>
<text text-anchor="middle" x="368.582" y="-65.3" font-family="Times,serif" font-size="14.00">DP 3</text>
</g>
<!-- orgapachecommonsmath3geometryeuclideantwodLine18272617253&#45;&gt;orgapachecommonsmath3geometryeuclideanonedOrientedPoint5821722148 -->
<g id="edge7" class="edge"><title>orgapachecommonsmath3geometryeuclideantwodLine18272617253&#45;&gt;orgapachecommonsmath3geometryeuclideanonedOrientedPoint5821722148</title>
<path fill="none" stroke="green" d="M277.615,-61.2945C284.891,-58.3191 293.126,-55.4951 300.985,-54 312.014,-51.9019 323.999,-53.4103 334.723,-56.1434"/>
<polygon fill="green" stroke="green" points="333.963,-59.5688 344.546,-59.0614 335.957,-52.8586 333.963,-59.5688"/>
<text text-anchor="middle" x="311.485" y="-57.8" font-family="Times,serif" font-size="14.00">180</text>
</g>
<!-- orgapachecommonsmath3geometryeuclideantwodLine18272617253&#45;&gt;orgapachecommonsmath3geometryeuclideanonedOrientedPoint5821722148 -->
<g id="edge8" class="edge"><title>orgapachecommonsmath3geometryeuclideantwodLine18272617253&#45;&gt;orgapachecommonsmath3geometryeuclideanonedOrientedPoint5821722148</title>
<path fill="none" stroke="red" d="M283.121,-71.2584C297.146,-70.8834 314.38,-70.4226 329.615,-70.0152"/>
<polygon fill="red" stroke="red" points="329.876,-73.5096 339.779,-69.7434 329.689,-66.5121 329.876,-73.5096"/>
<text text-anchor="middle" x="311.485" y="-73.8" font-family="Times,serif" font-size="14.00">144</text>
</g>
<!-- orgapachecommonsmath3geometryeuclideanonedOrientedPoint5821722148&#45;&gt;ok -->
<g id="edge10" class="edge"><title>orgapachecommonsmath3geometryeuclideanonedOrientedPoint5821722148&#45;&gt;ok</title>
<path fill="none" stroke="green" d="M394.5,-76.868C407.257,-81.2642 422.863,-87.22 436.18,-94 442.065,-96.9965 448.13,-100.609 453.805,-104.252"/>
<polygon fill="green" stroke="green" points="452.056,-107.292 462.321,-109.917 455.934,-101.464 452.056,-107.292"/>
<text text-anchor="middle" x="425.68" y="-97.8" font-family="Times,serif" font-size="14.00">180</text>
</g>
<!-- orgapachecommonsmath3geometryeuclideanonedOrientedPoint5821722148&#45;&gt;ko -->
<g id="edge9" class="edge"><title>orgapachecommonsmath3geometryeuclideanonedOrientedPoint5821722148&#45;&gt;ko</title>
<path fill="none" stroke="red" d="M392.23,-58.5563C408.547,-51.0322 430.772,-40.7834 448.798,-32.4712"/>
<polygon fill="red" stroke="red" points="450.701,-35.4481 458.316,-28.0821 447.769,-29.0914 450.701,-35.4481"/>
<text text-anchor="middle" x="425.68" y="-50.8" font-family="Times,serif" font-size="14.00">144</text>
</g>
</g>
</svg>
