<?xml version="1.0" encoding="UTF-8" standalone="no"?>
<!DOCTYPE svg PUBLIC "-//W3C//DTD SVG 1.1//EN"
 "http://www.w3.org/Graphics/SVG/1.1/DTD/svg11.dtd">
<!-- Generated by graphviz version 2.38.0 (20140413.2041)
 -->
<!-- Title: g Pages: 1 -->
<svg width="260pt" height="98pt"
 viewBox="0.00 0.00 259.79 98.00" xmlns="http://www.w3.org/2000/svg" xmlns:xlink="http://www.w3.org/1999/xlink">
<g id="graph0" class="graph" transform="scale(1 1) rotate(0) translate(4 94)">
<title>g</title>
<polygon fill="white" stroke="none" points="-4,4 -4,-94 255.79,-94 255.79,4 -4,4"/>
<!-- ok -->
<g id="node1" class="node"><title>ok</title>
<ellipse fill="none" stroke="green" cx="224.79" cy="-72" rx="27" ry="18"/>
<text text-anchor="middle" x="224.79" y="-68.3" font-family="Times,serif" font-size="14.00">Ok</text>
</g>
<!-- ko -->
<g id="node2" class="node"><title>ko</title>
<ellipse fill="none" stroke="red" cx="224.79" cy="-18" rx="27" ry="18"/>
<text text-anchor="middle" x="224.79" y="-14.3" font-family="Times,serif" font-size="14.00">Ko</text>
</g>
<!-- start -->
<g id="node3" class="node"><title>start</title>
<ellipse fill="none" stroke="black" cx="27.2976" cy="-45" rx="27.0966" ry="18"/>
<text text-anchor="middle" x="27.2976" y="-41.3" font-family="Times,serif" font-size="14.00">Start</text>
</g>
<!-- orgapachecommonsmathstatclusteringKMeansPlusPlusClusterer9137603741 -->
<g id="node4" class="node"><title>orgapachecommonsmathstatclusteringKMeansPlusPlusClusterer9137603741</title>
<ellipse fill="none" stroke="black" cx="126.193" cy="-45" rx="28.6953" ry="18"/>
<text text-anchor="middle" x="126.193" y="-41.3" font-family="Times,serif" font-size="14.00">DP 1</text>
</g>
<!-- start&#45;&gt;orgapachecommonsmathstatclusteringKMeansPlusPlusClusterer9137603741 -->
<g id="edge1" class="edge"><title>start&#45;&gt;orgapachecommonsmathstatclusteringKMeansPlusPlusClusterer9137603741</title>
<path fill="none" stroke="green" stroke-width="3" d="M54.7746,-45C64.7957,-45 76.4079,-45 87.277,-45"/>
<polygon fill="green" stroke="green" stroke-width="3" points="87.394,-48.5001 97.3939,-45 87.3939,-41.5001 87.394,-48.5001"/>
<text text-anchor="middle" x="76.0952" y="-48.8" font-family="Times,serif" font-size="14.00">3</text>
</g>
<!-- start&#45;&gt;orgapachecommonsmathstatclusteringKMeansPlusPlusClusterer9137603741 -->
<g id="edge2" class="edge"><title>start&#45;&gt;orgapachecommonsmathstatclusteringKMeansPlusPlusClusterer9137603741</title>
<path fill="none" stroke="red" d="M49.3575,-33.9059C56.5294,-30.6924 64.7261,-27.6164 72.5952,-26 80.3982,-24.3972 88.6022,-25.7734 96.1487,-28.3837"/>
<polygon fill="red" stroke="red" points="95.0279,-31.7097 105.602,-32.3794 97.7533,-25.2621 95.0279,-31.7097"/>
<text text-anchor="middle" x="76.0952" y="-29.8" font-family="Times,serif" font-size="14.00">1</text>
</g>
<!-- orgapachecommonsmathstatclusteringKMeansPlusPlusClusterer9137603741&#45;&gt;ok -->
<g id="edge4" class="edge"><title>orgapachecommonsmathstatclusteringKMeansPlusPlusClusterer9137603741&#45;&gt;ok</title>
<path fill="none" stroke="green" stroke-width="3" d="M152.572,-52.0939C163.927,-55.2676 177.481,-59.0562 189.703,-62.4723"/>
<polygon fill="green" stroke="green" stroke-width="3" points="189.005,-65.9113 199.578,-65.2325 190.889,-59.1697 189.005,-65.9113"/>
<text text-anchor="middle" x="176.29" y="-62.8" font-family="Times,serif" font-size="14.00">3</text>
</g>
<!-- orgapachecommonsmathstatclusteringKMeansPlusPlusClusterer9137603741&#45;&gt;ko -->
<g id="edge3" class="edge"><title>orgapachecommonsmathstatclusteringKMeansPlusPlusClusterer9137603741&#45;&gt;ko</title>
<path fill="none" stroke="red" d="M152.572,-37.9061C163.927,-34.7324 177.481,-30.9438 189.703,-27.5277"/>
<polygon fill="red" stroke="red" points="190.889,-30.8303 199.578,-24.7675 189.005,-24.0887 190.889,-30.8303"/>
<text text-anchor="middle" x="176.29" y="-34.8" font-family="Times,serif" font-size="14.00">1</text>
</g>
</g>
</svg>
