<?xml version="1.0" encoding="UTF-8" standalone="no"?>
<!DOCTYPE svg PUBLIC "-//W3C//DTD SVG 1.1//EN"
 "http://www.w3.org/Graphics/SVG/1.1/DTD/svg11.dtd">
<!-- Generated by graphviz version 2.38.0 (20140413.2041)
 -->
<!-- Title: g Pages: 1 -->
<svg width="274pt" height="98pt"
 viewBox="0.00 0.00 273.79 98.00" xmlns="http://www.w3.org/2000/svg" xmlns:xlink="http://www.w3.org/1999/xlink">
<g id="graph0" class="graph" transform="scale(1 1) rotate(0) translate(4 94)">
<title>g</title>
<polygon fill="white" stroke="none" points="-4,4 -4,-94 269.79,-94 269.79,4 -4,4"/>
<!-- ok -->
<g id="node1" class="node"><title>ok</title>
<ellipse fill="none" stroke="green" cx="238.79" cy="-72" rx="27" ry="18"/>
<text text-anchor="middle" x="238.79" y="-68.3" font-family="Times,serif" font-size="14.00">Ok</text>
</g>
<!-- ko -->
<g id="node2" class="node"><title>ko</title>
<ellipse fill="none" stroke="red" cx="238.79" cy="-18" rx="27" ry="18"/>
<text text-anchor="middle" x="238.79" y="-14.3" font-family="Times,serif" font-size="14.00">Ko</text>
</g>
<!-- start -->
<g id="node3" class="node"><title>start</title>
<ellipse fill="none" stroke="black" cx="27.2976" cy="-45" rx="27.0966" ry="18"/>
<text text-anchor="middle" x="27.2976" y="-41.3" font-family="Times,serif" font-size="14.00">Start</text>
</g>
<!-- orgapachecommonsmathoptimizationlinearSimplexTableau2491031810261 -->
<g id="node4" class="node"><title>orgapachecommonsmathoptimizationlinearSimplexTableau2491031810261</title>
<ellipse fill="none" stroke="black" cx="133.193" cy="-45" rx="28.6953" ry="18"/>
<text text-anchor="middle" x="133.193" y="-41.3" font-family="Times,serif" font-size="14.00">DP 1</text>
</g>
<!-- start&#45;&gt;orgapachecommonsmathoptimizationlinearSimplexTableau2491031810261 -->
<g id="edge1" class="edge"><title>start&#45;&gt;orgapachecommonsmathoptimizationlinearSimplexTableau2491031810261</title>
<path fill="none" stroke="green" d="M54.7835,-45C66.738,-45 81.0826,-45 94.1577,-45"/>
<polygon fill="green" stroke="green" points="94.3016,-48.5001 104.302,-45 94.3015,-41.5001 94.3016,-48.5001"/>
<text text-anchor="middle" x="79.5952" y="-48.8" font-family="Times,serif" font-size="14.00">4</text>
</g>
<!-- start&#45;&gt;orgapachecommonsmathoptimizationlinearSimplexTableau2491031810261 -->
<g id="edge2" class="edge"><title>start&#45;&gt;orgapachecommonsmathoptimizationlinearSimplexTableau2491031810261</title>
<path fill="none" stroke="red" stroke-width="3" d="M49.3575,-33.9059C56.5294,-30.6924 64.7261,-27.6164 72.5952,-26 82.4642,-23.9728 93.0072,-25.9102 102.44,-29.2049"/>
<polygon fill="red" stroke="red" stroke-width="3" points="101.211,-32.4837 111.792,-33.0204 103.855,-26.0023 101.211,-32.4837"/>
<text text-anchor="middle" x="79.5952" y="-29.8" font-family="Times,serif" font-size="14.00">10</text>
</g>
<!-- orgapachecommonsmathoptimizationlinearSimplexTableau2491031810261&#45;&gt;ok -->
<g id="edge3" class="edge"><title>orgapachecommonsmathoptimizationlinearSimplexTableau2491031810261&#45;&gt;ok</title>
<path fill="none" stroke="green" d="M159.801,-51.6742C172.916,-55.0921 189.07,-59.3023 203.268,-63.0028"/>
<polygon fill="green" stroke="green" points="202.63,-66.4533 213.19,-65.5885 204.396,-59.6796 202.63,-66.4533"/>
<text text-anchor="middle" x="186.79" y="-63.8" font-family="Times,serif" font-size="14.00">4</text>
</g>
<!-- orgapachecommonsmathoptimizationlinearSimplexTableau2491031810261&#45;&gt;ko -->
<g id="edge4" class="edge"><title>orgapachecommonsmathoptimizationlinearSimplexTableau2491031810261&#45;&gt;ko</title>
<path fill="none" stroke="red" stroke-width="3" d="M159.801,-38.3258C172.916,-34.9079 189.07,-30.6977 203.268,-26.9972"/>
<polygon fill="red" stroke="red" stroke-width="3" points="204.396,-30.3204 213.19,-24.4115 202.63,-23.5467 204.396,-30.3204"/>
<text text-anchor="middle" x="186.79" y="-35.8" font-family="Times,serif" font-size="14.00">10</text>
</g>
</g>
</svg>
