<?xml version="1.0" encoding="UTF-8" standalone="no"?>
<!DOCTYPE svg PUBLIC "-//W3C//DTD SVG 1.1//EN"
 "http://www.w3.org/Graphics/SVG/1.1/DTD/svg11.dtd">
<!-- Generated by graphviz version 2.38.0 (20140413.2041)
 -->
<!-- Title: g Pages: 1 -->
<svg width="1143pt" height="388pt"
 viewBox="0.00 0.00 1143.15 387.83" xmlns="http://www.w3.org/2000/svg" xmlns:xlink="http://www.w3.org/1999/xlink">
<g id="graph0" class="graph" transform="scale(1 1) rotate(0) translate(4 383.831)">
<title>g</title>
<polygon fill="white" stroke="none" points="-4,4 -4,-383.831 1139.15,-383.831 1139.15,4 -4,4"/>
<!-- ok -->
<g id="node1" class="node"><title>ok</title>
<ellipse fill="none" stroke="green" cx="1108.15" cy="-42.831" rx="27" ry="18"/>
<text text-anchor="middle" x="1108.15" y="-39.131" font-family="Times,serif" font-size="14.00">Ok</text>
</g>
<!-- ko -->
<g id="node2" class="node"><title>ko</title>
<ellipse fill="none" stroke="red" cx="1108.15" cy="-210.831" rx="27" ry="18"/>
<text text-anchor="middle" x="1108.15" y="-207.131" font-family="Times,serif" font-size="14.00">Ko</text>
</g>
<!-- start -->
<g id="node3" class="node"><title>start</title>
<ellipse fill="none" stroke="black" cx="27.2976" cy="-334.831" rx="27.0966" ry="18"/>
<text text-anchor="middle" x="27.2976" y="-331.131" font-family="Times,serif" font-size="14.00">Start</text>
</g>
<!-- orgapachecommonsmath3geometrypartitioningBSPTree3011117711138 -->
<g id="node4" class="node"><title>orgapachecommonsmath3geometrypartitioningBSPTree3011117711138</title>
<ellipse fill="none" stroke="black" cx="147.193" cy="-334.831" rx="28.6953" ry="18"/>
<text text-anchor="middle" x="147.193" y="-331.131" font-family="Times,serif" font-size="14.00">DP 1</text>
</g>
<!-- start&#45;&gt;orgapachecommonsmath3geometrypartitioningBSPTree3011117711138 -->
<g id="edge1" class="edge"><title>start&#45;&gt;orgapachecommonsmath3geometrypartitioningBSPTree3011117711138</title>
<path fill="none" stroke="green" d="M54.7555,-334.831C70.4974,-334.831 90.7347,-334.831 108.167,-334.831"/>
<polygon fill="green" stroke="green" points="108.593,-338.331 118.593,-334.831 108.593,-331.331 108.593,-338.331"/>
<text text-anchor="middle" x="86.5952" y="-338.631" font-family="Times,serif" font-size="14.00">761</text>
</g>
<!-- start&#45;&gt;orgapachecommonsmath3geometrypartitioningBSPTree3011117711138 -->
<g id="edge2" class="edge"><title>start&#45;&gt;orgapachecommonsmath3geometrypartitioningBSPTree3011117711138</title>
<path fill="none" stroke="red" stroke-width="4" d="M49.3575,-323.737C56.5294,-320.523 64.7261,-317.447 72.5952,-315.831 84.7851,-313.327 88.3924,-313.39 100.595,-315.831 105.389,-316.79 110.308,-318.263 115.059,-319.975"/>
<polygon fill="red" stroke="red" stroke-width="4" points="113.898,-323.28 124.483,-323.735 116.492,-316.778 113.898,-323.28"/>
<text text-anchor="middle" x="86.5952" y="-319.631" font-family="Times,serif" font-size="14.00">6461</text>
</g>
<!-- orgapachecommonsmath3geometrypartitioningBSPTree3011117711138&#45;&gt;ko -->
<g id="edge28" class="edge"><title>orgapachecommonsmath3geometrypartitioningBSPTree3011117711138&#45;&gt;ko</title>
<path fill="none" stroke="red" d="M171.503,-344.323C195.22,-353.112 233.245,-364.831 267.388,-364.831 267.388,-364.831 267.388,-364.831 996.557,-364.831 1057.96,-364.831 1088.6,-283.058 1100.71,-238.687"/>
<polygon fill="red" stroke="red" points="1104.15,-239.356 1103.27,-228.798 1097.37,-237.601 1104.15,-239.356"/>
<text text-anchor="middle" x="631.972" y="-368.631" font-family="Times,serif" font-size="14.00">2</text>
</g>
<!-- orgapachecommonsmath3geometryeuclideantwodPolygonsSetComparableSegment8443606736056 -->
<g id="node5" class="node"><title>orgapachecommonsmath3geometryeuclideantwodPolygonsSetComparableSegment8443606736056</title>
<ellipse fill="none" stroke="black" cx="268.388" cy="-307.831" rx="28.6953" ry="18"/>
<text text-anchor="middle" x="268.388" y="-304.131" font-family="Times,serif" font-size="14.00">DP 2</text>
</g>
<!-- orgapachecommonsmath3geometrypartitioningBSPTree3011117711138&#45;&gt;orgapachecommonsmath3geometryeuclideantwodPolygonsSetComparableSegment8443606736056 -->
<g id="edge3" class="edge"><title>orgapachecommonsmath3geometrypartitioningBSPTree3011117711138&#45;&gt;orgapachecommonsmath3geometryeuclideantwodPolygonsSetComparableSegment8443606736056</title>
<path fill="none" stroke="green" d="M174.35,-328.906C191.119,-325.107 213.109,-320.126 231.5,-315.96"/>
<polygon fill="green" stroke="green" points="232.311,-319.365 241.291,-313.742 230.765,-312.538 232.311,-319.365"/>
<text text-anchor="middle" x="207.79" y="-326.631" font-family="Times,serif" font-size="14.00">756</text>
</g>
<!-- orgapachecommonsmath3geometrypartitioningBSPTree3011117711138&#45;&gt;orgapachecommonsmath3geometryeuclideantwodPolygonsSetComparableSegment8443606736056 -->
<g id="edge4" class="edge"><title>orgapachecommonsmath3geometrypartitioningBSPTree3011117711138&#45;&gt;orgapachecommonsmath3geometryeuclideantwodPolygonsSetComparableSegment8443606736056</title>
<path fill="none" stroke="red" stroke-width="4" d="M162.636,-319.259C170.908,-311.507 181.975,-302.933 193.79,-298.831 206.141,-294.543 220.275,-295.074 232.835,-297.275"/>
<polygon fill="red" stroke="red" stroke-width="4" points="232.428,-300.768 242.94,-299.448 233.899,-293.924 232.428,-300.768"/>
<text text-anchor="middle" x="207.79" y="-302.631" font-family="Times,serif" font-size="14.00">6459</text>
</g>
<!-- orgapachecommonsmath3geometryeuclideantwodPolygonsSetComparableSegment8443608136070 -->
<g id="node6" class="node"><title>orgapachecommonsmath3geometryeuclideantwodPolygonsSetComparableSegment8443608136070</title>
<ellipse fill="none" stroke="black" cx="389.582" cy="-284.831" rx="28.6953" ry="18"/>
<text text-anchor="middle" x="389.582" y="-281.131" font-family="Times,serif" font-size="14.00">DP 3</text>
</g>
<!-- orgapachecommonsmath3geometryeuclideantwodPolygonsSetComparableSegment8443606736056&#45;&gt;orgapachecommonsmath3geometryeuclideantwodPolygonsSetComparableSegment8443608136070 -->
<g id="edge5" class="edge"><title>orgapachecommonsmath3geometryeuclideantwodPolygonsSetComparableSegment8443606736056&#45;&gt;orgapachecommonsmath3geometryeuclideantwodPolygonsSetComparableSegment8443608136070</title>
<path fill="none" stroke="green" d="M287.44,-294.11C295.433,-288.865 305.224,-283.504 314.985,-280.831 326.822,-277.589 340.119,-277.338 352.121,-278.291"/>
<polygon fill="green" stroke="green" points="351.946,-281.793 362.266,-279.394 352.703,-274.834 351.946,-281.793"/>
<text text-anchor="middle" x="328.985" y="-284.631" font-family="Times,serif" font-size="14.00">756</text>
</g>
<!-- orgapachecommonsmath3geometryeuclideantwodPolygonsSetComparableSegment8443606736056&#45;&gt;orgapachecommonsmath3geometryeuclideantwodPolygonsSetComparableSegment8443608136070 -->
<g id="edge6" class="edge"><title>orgapachecommonsmath3geometryeuclideantwodPolygonsSetComparableSegment8443606736056&#45;&gt;orgapachecommonsmath3geometryeuclideantwodPolygonsSetComparableSegment8443608136070</title>
<path fill="none" stroke="red" stroke-width="4" d="M296.392,-303.925C310.348,-301.781 327.63,-298.93 342.985,-295.831 346.178,-295.186 349.486,-294.475 352.796,-293.733"/>
<polygon fill="red" stroke="red" stroke-width="4" points="353.667,-297.124 362.616,-291.452 352.083,-290.305 353.667,-297.124"/>
<text text-anchor="middle" x="328.985" y="-304.631" font-family="Times,serif" font-size="14.00">6459</text>
</g>
<!-- orgapachecommonsmath3geometryeuclideantwodPolygonsSetComparableSegment8443608136070&#45;&gt;ko -->
<g id="edge27" class="edge"><title>orgapachecommonsmath3geometryeuclideantwodPolygonsSetComparableSegment8443608136070&#45;&gt;ko</title>
<path fill="none" stroke="red" d="M413.33,-295.402C436.92,-305.383 475.132,-318.831 509.777,-318.831 509.777,-318.831 509.777,-318.831 996.557,-318.831 1043.01,-318.831 1077.21,-269.456 1094.49,-237.476"/>
<polygon fill="red" stroke="red" points="1097.81,-238.672 1099.3,-228.183 1091.59,-235.453 1097.81,-238.672"/>
<text text-anchor="middle" x="753.167" y="-322.631" font-family="Times,serif" font-size="14.00">2</text>
</g>
<!-- orgapachecommonsmath3geometrypartitioningutilitiesAVLTreeNode3851320213186 -->
<g id="node7" class="node"><title>orgapachecommonsmath3geometrypartitioningutilitiesAVLTreeNode3851320213186</title>
<ellipse fill="none" stroke="black" cx="510.777" cy="-246.831" rx="28.6953" ry="18"/>
<text text-anchor="middle" x="510.777" y="-243.131" font-family="Times,serif" font-size="14.00">DP 4</text>
</g>
<!-- orgapachecommonsmath3geometryeuclideantwodPolygonsSetComparableSegment8443608136070&#45;&gt;orgapachecommonsmath3geometrypartitioningutilitiesAVLTreeNode3851320213186 -->
<g id="edge7" class="edge"><title>orgapachecommonsmath3geometryeuclideantwodPolygonsSetComparableSegment8443608136070&#45;&gt;orgapachecommonsmath3geometrypartitioningutilitiesAVLTreeNode3851320213186</title>
<path fill="none" stroke="green" d="M404.573,-269.283C412.869,-261.239 424.103,-252.207 436.18,-247.831 447.609,-243.69 460.708,-242.488 472.656,-242.613"/>
<polygon fill="green" stroke="green" points="472.656,-246.116 482.789,-243.024 472.94,-239.122 472.656,-246.116"/>
<text text-anchor="middle" x="450.18" y="-251.631" font-family="Times,serif" font-size="14.00">756</text>
</g>
<!-- orgapachecommonsmath3geometryeuclideantwodPolygonsSetComparableSegment8443608136070&#45;&gt;orgapachecommonsmath3geometrypartitioningutilitiesAVLTreeNode3851320213186 -->
<g id="edge8" class="edge"><title>orgapachecommonsmath3geometryeuclideantwodPolygonsSetComparableSegment8443608136070&#45;&gt;orgapachecommonsmath3geometrypartitioningutilitiesAVLTreeNode3851320213186</title>
<path fill="none" stroke="red" stroke-width="4" d="M415.88,-277.588C430.119,-273.431 448.198,-268.02 464.18,-262.831 468.02,-261.584 472.028,-260.241 476.004,-258.881"/>
<polygon fill="red" stroke="red" stroke-width="4" points="477.411,-262.097 485.712,-255.513 475.117,-255.484 477.411,-262.097"/>
<text text-anchor="middle" x="450.18" y="-275.631" font-family="Times,serif" font-size="14.00">6457</text>
</g>
<!-- orgapachecommonsmath3geometrypartitioningutilitiesAVLTreeNode3851320213186&#45;&gt;ko -->
<g id="edge9" class="edge"><title>orgapachecommonsmath3geometrypartitioningutilitiesAVLTreeNode3851320213186&#45;&gt;ko</title>
<path fill="none" stroke="red" d="M536.094,-255.344C559.947,-262.927 597.508,-272.831 630.972,-272.831 630.972,-272.831 630.972,-272.831 996.557,-272.831 1030.56,-272.831 1063.8,-250.251 1084.82,-232.344"/>
<polygon fill="red" stroke="red" points="1087.35,-234.776 1092.51,-225.524 1082.71,-229.538 1087.35,-234.776"/>
<text text-anchor="middle" x="813.765" y="-276.631" font-family="Times,serif" font-size="14.00">16</text>
</g>
<!-- orgapachecommonsmath3geometryeuclideantwodLine23994499441 -->
<g id="node8" class="node"><title>orgapachecommonsmath3geometryeuclideantwodLine23994499441</title>
<ellipse fill="none" stroke="black" cx="631.972" cy="-204.831" rx="28.6953" ry="18"/>
<text text-anchor="middle" x="631.972" y="-201.131" font-family="Times,serif" font-size="14.00">DP 5</text>
</g>
<!-- orgapachecommonsmath3geometrypartitioningutilitiesAVLTreeNode3851320213186&#45;&gt;orgapachecommonsmath3geometryeuclideantwodLine23994499441 -->
<g id="edge10" class="edge"><title>orgapachecommonsmath3geometrypartitioningutilitiesAVLTreeNode3851320213186&#45;&gt;orgapachecommonsmath3geometryeuclideantwodLine23994499441</title>
<path fill="none" stroke="green" d="M536.186,-238.23C553.702,-232.058 577.536,-223.66 596.921,-216.829"/>
<polygon fill="green" stroke="green" points="598.328,-220.045 606.596,-213.42 596.002,-213.443 598.328,-220.045"/>
<text text-anchor="middle" x="571.375" y="-233.631" font-family="Times,serif" font-size="14.00">756</text>
</g>
<!-- orgapachecommonsmath3geometrypartitioningutilitiesAVLTreeNode3851320213186&#45;&gt;orgapachecommonsmath3geometryeuclideantwodLine23994499441 -->
<g id="edge11" class="edge"><title>orgapachecommonsmath3geometrypartitioningutilitiesAVLTreeNode3851320213186&#45;&gt;orgapachecommonsmath3geometryeuclideantwodLine23994499441</title>
<path fill="none" stroke="red" stroke-width="4" d="M523.297,-230.583C531.5,-220.501 543.502,-208.433 557.375,-202.831 568.834,-198.204 582.134,-197.357 594.251,-198.095"/>
<polygon fill="red" stroke="red" stroke-width="4" points="594.226,-201.609 604.519,-199.096 594.905,-194.642 594.226,-201.609"/>
<text text-anchor="middle" x="571.375" y="-206.631" font-family="Times,serif" font-size="14.00">6441</text>
</g>
<!-- orgapachecommonsmath3geometryeuclideantwodLine23994499441&#45;&gt;ko -->
<g id="edge12" class="edge"><title>orgapachecommonsmath3geometryeuclideantwodLine23994499441&#45;&gt;ko</title>
<path fill="none" stroke="red" d="M657.769,-213.156C681.661,-220.428 718.971,-229.831 752.167,-229.831 752.167,-229.831 752.167,-229.831 996.557,-229.831 1022.46,-229.831 1051.28,-224.707 1073.01,-219.781"/>
<polygon fill="red" stroke="red" points="1073.84,-223.183 1082.76,-217.476 1072.22,-216.37 1073.84,-223.183"/>
<text text-anchor="middle" x="874.362" y="-233.631" font-family="Times,serif" font-size="14.00">191</text>
</g>
<!-- orgapachecommonsmath3geometryeuclideantwodLine23994679459 -->
<g id="node9" class="node"><title>orgapachecommonsmath3geometryeuclideantwodLine23994679459</title>
<ellipse fill="none" stroke="black" cx="753.167" cy="-161.831" rx="28.6953" ry="18"/>
<text text-anchor="middle" x="753.167" y="-158.131" font-family="Times,serif" font-size="14.00">DP 6</text>
</g>
<!-- orgapachecommonsmath3geometryeuclideantwodLine23994499441&#45;&gt;orgapachecommonsmath3geometryeuclideantwodLine23994679459 -->
<g id="edge13" class="edge"><title>orgapachecommonsmath3geometryeuclideantwodLine23994499441&#45;&gt;orgapachecommonsmath3geometryeuclideantwodLine23994679459</title>
<path fill="none" stroke="green" d="M645.413,-188.514C653.661,-179.089 665.371,-168.087 678.57,-162.831 689.864,-158.333 702.927,-157.041 714.886,-157.192"/>
<polygon fill="green" stroke="green" points="714.889,-160.695 725.038,-157.652 715.206,-153.702 714.889,-160.695"/>
<text text-anchor="middle" x="692.57" y="-166.631" font-family="Times,serif" font-size="14.00">756</text>
</g>
<!-- orgapachecommonsmath3geometryeuclideantwodLine23994499441&#45;&gt;orgapachecommonsmath3geometryeuclideantwodLine23994679459 -->
<g id="edge14" class="edge"><title>orgapachecommonsmath3geometryeuclideantwodLine23994499441&#45;&gt;orgapachecommonsmath3geometryeuclideantwodLine23994679459</title>
<path fill="none" stroke="red" stroke-width="4" d="M657.093,-196.129C674.784,-189.747 699.032,-181 718.612,-173.936"/>
<polygon fill="red" stroke="red" stroke-width="4" points="719.863,-177.206 728.082,-170.52 717.488,-170.621 719.863,-177.206"/>
<text text-anchor="middle" x="692.57" y="-191.631" font-family="Times,serif" font-size="14.00">6250</text>
</g>
<!-- orgapachecommonsmath3geometryeuclideantwodLine23994679459&#45;&gt;ko -->
<g id="edge26" class="edge"><title>orgapachecommonsmath3geometryeuclideantwodLine23994679459&#45;&gt;ko</title>
<path fill="none" stroke="red" d="M781.279,-165.595C844.237,-174.334 1000.35,-196.004 1071.18,-205.837"/>
<polygon fill="red" stroke="red" points="1071,-209.346 1081.39,-207.254 1071.96,-202.412 1071,-209.346"/>
<text text-anchor="middle" x="934.96" y="-192.631" font-family="Times,serif" font-size="14.00">2456</text>
</g>
<!-- orgapachecommonsmath3geometryeuclideantwodPolygonsSet7393185931784 -->
<g id="node10" class="node"><title>orgapachecommonsmath3geometryeuclideantwodPolygonsSet7393185931784</title>
<ellipse fill="none" stroke="black" cx="874.362" cy="-115.831" rx="28.6953" ry="18"/>
<text text-anchor="middle" x="874.362" y="-112.131" font-family="Times,serif" font-size="14.00">DP 7</text>
</g>
<!-- orgapachecommonsmath3geometryeuclideantwodLine23994679459&#45;&gt;orgapachecommonsmath3geometryeuclideantwodPolygonsSet7393185931784 -->
<g id="edge15" class="edge"><title>orgapachecommonsmath3geometryeuclideantwodLine23994679459&#45;&gt;orgapachecommonsmath3geometryeuclideantwodPolygonsSet7393185931784</title>
<path fill="none" stroke="green" d="M778.002,-152.633C795.786,-145.769 820.312,-136.304 840.038,-128.692"/>
<polygon fill="green" stroke="green" points="841.5,-131.879 849.569,-125.013 838.98,-125.348 841.5,-131.879"/>
<text text-anchor="middle" x="813.765" y="-147.631" font-family="Times,serif" font-size="14.00">756</text>
</g>
<!-- orgapachecommonsmath3geometryeuclideantwodLine23994679459&#45;&gt;orgapachecommonsmath3geometryeuclideantwodPolygonsSet7393185931784 -->
<g id="edge16" class="edge"><title>orgapachecommonsmath3geometryeuclideantwodLine23994679459&#45;&gt;orgapachecommonsmath3geometryeuclideantwodPolygonsSet7393185931784</title>
<path fill="none" stroke="red" stroke-width="2" d="M765.09,-144.976C773.195,-134.124 785.316,-120.944 799.765,-114.831 811.142,-110.017 824.423,-108.982 836.547,-109.557"/>
<polygon fill="red" stroke="red" stroke-width="2" points="836.567,-113.072 846.826,-110.424 837.155,-106.096 836.567,-113.072"/>
<text text-anchor="middle" x="813.765" y="-118.631" font-family="Times,serif" font-size="14.00">3794</text>
</g>
<!-- orgapachecommonsmath3geometryeuclideantwodPolygonsSet7393185931784&#45;&gt;ko -->
<g id="edge21" class="edge"><title>orgapachecommonsmath3geometryeuclideantwodPolygonsSet7393185931784&#45;&gt;ko</title>
<path fill="none" stroke="red" stroke-width="2" d="M901.83,-121.28C939.385,-129.724 1009.53,-148.162 1063.15,-177.831 1069.82,-181.517 1076.6,-186.11 1082.78,-190.685"/>
<polygon fill="red" stroke="red" stroke-width="2" points="1080.71,-193.506 1090.77,-196.828 1084.97,-187.957 1080.71,-193.506"/>
<text text-anchor="middle" x="995.557" y="-162.631" font-family="Times,serif" font-size="14.00">3037</text>
</g>
<!-- orgapachecommonsmath3geometryeuclideantwodPolygonsSet6112567225665 -->
<g id="node11" class="node"><title>orgapachecommonsmath3geometryeuclideantwodPolygonsSet6112567225665</title>
<ellipse fill="none" stroke="black" cx="995.557" cy="-18.831" rx="28.6953" ry="18"/>
<text text-anchor="middle" x="995.557" y="-15.131" font-family="Times,serif" font-size="14.00">DP 8</text>
</g>
<!-- orgapachecommonsmath3geometryeuclideantwodPolygonsSet7393185931784&#45;&gt;orgapachecommonsmath3geometryeuclideantwodPolygonsSet6112567225665 -->
<g id="edge17" class="edge"><title>orgapachecommonsmath3geometryeuclideantwodPolygonsSet7393185931784&#45;&gt;orgapachecommonsmath3geometryeuclideantwodPolygonsSet6112567225665</title>
<path fill="none" stroke="green" d="M876.905,-97.5413C880.156,-71.9756 890.189,-26.3855 920.96,-5.83097 933.375,2.46235 949.499,0.673512 963.489,-3.80938"/>
<polygon fill="green" stroke="green" points="962.623,-7.22207 973.216,-7.44411 965.074,-0.664956 962.623,-7.22207"/>
<text text-anchor="middle" x="934.96" y="-9.63097" font-family="Times,serif" font-size="14.00">378</text>
</g>
<!-- orgapachecommonsmath3geometryeuclideantwodPolygonsSet7393185931784&#45;&gt;orgapachecommonsmath3geometryeuclideantwodPolygonsSet6112567225665 -->
<g id="edge18" class="edge"><title>orgapachecommonsmath3geometryeuclideantwodPolygonsSet7393185931784&#45;&gt;orgapachecommonsmath3geometryeuclideantwodPolygonsSet6112567225665</title>
<path fill="none" stroke="red" d="M886.32,-99.2121C894.781,-87.2495 907.318,-71.2708 920.96,-59.831 933.434,-49.3694 948.975,-40.2539 962.558,-33.2918"/>
<polygon fill="red" stroke="red" points="964.174,-36.3968 971.586,-28.8258 961.071,-30.1225 964.174,-36.3968"/>
<text text-anchor="middle" x="934.96" y="-63.631" font-family="Times,serif" font-size="14.00">379</text>
</g>
<!-- orgapachecommonsmath3geometryeuclideantwodPolygonsSet6212615026144 -->
<g id="node12" class="node"><title>orgapachecommonsmath3geometryeuclideantwodPolygonsSet6212615026144</title>
<ellipse fill="none" stroke="black" cx="995.557" cy="-87.831" rx="28.6953" ry="18"/>
<text text-anchor="middle" x="995.557" y="-84.131" font-family="Times,serif" font-size="14.00">DP 9</text>
</g>
<!-- orgapachecommonsmath3geometryeuclideantwodPolygonsSet7393185931784&#45;&gt;orgapachecommonsmath3geometryeuclideantwodPolygonsSet6212615026144 -->
<g id="edge22" class="edge"><title>orgapachecommonsmath3geometryeuclideantwodPolygonsSet7393185931784&#45;&gt;orgapachecommonsmath3geometryeuclideantwodPolygonsSet6212615026144</title>
<path fill="none" stroke="green" d="M890.364,-100.755C898.634,-93.5243 909.525,-85.6247 920.96,-81.831 933.032,-77.8255 946.802,-77.8261 959.14,-79.3292"/>
<polygon fill="green" stroke="green" points="958.677,-82.7993 969.098,-80.8902 959.761,-75.8838 958.677,-82.7993"/>
<text text-anchor="middle" x="934.96" y="-85.631" font-family="Times,serif" font-size="14.00">378</text>
</g>
<!-- orgapachecommonsmath3geometryeuclideantwodPolygonsSet7393185931784&#45;&gt;orgapachecommonsmath3geometryeuclideantwodPolygonsSet6212615026144 -->
<g id="edge23" class="edge"><title>orgapachecommonsmath3geometryeuclideantwodPolygonsSet7393185931784&#45;&gt;orgapachecommonsmath3geometryeuclideantwodPolygonsSet6212615026144</title>
<path fill="none" stroke="red" d="M901.52,-109.686C918.288,-105.747 940.278,-100.582 958.669,-96.2613"/>
<polygon fill="red" stroke="red" points="959.526,-99.6555 968.46,-93.9614 957.925,-92.841 959.526,-99.6555"/>
<text text-anchor="middle" x="934.96" y="-108.631" font-family="Times,serif" font-size="14.00">378</text>
</g>
<!-- orgapachecommonsmath3geometryeuclideantwodPolygonsSet6112567225665&#45;&gt;ok -->
<g id="edge19" class="edge"><title>orgapachecommonsmath3geometryeuclideantwodPolygonsSet6112567225665&#45;&gt;ok</title>
<path fill="none" stroke="green" d="M1019.23,-8.4574C1032.34,-3.91621 1048.99,-0.666213 1063.15,-5.83097 1071.65,-8.92693 1079.64,-14.4628 1086.42,-20.3249"/>
<polygon fill="green" stroke="green" points="1084.09,-22.9416 1093.78,-27.2297 1088.88,-17.8358 1084.09,-22.9416"/>
<text text-anchor="middle" x="1052.65" y="-9.63097" font-family="Times,serif" font-size="14.00">378</text>
</g>
<!-- orgapachecommonsmath3geometryeuclideantwodPolygonsSet6112567225665&#45;&gt;ko -->
<g id="edge20" class="edge"><title>orgapachecommonsmath3geometryeuclideantwodPolygonsSet6112567225665&#45;&gt;ko</title>
<path fill="none" stroke="red" d="M1023.88,-22.5774C1037.44,-25.7945 1053.04,-31.7639 1063.15,-42.831 1081.81,-63.2441 1096.33,-140.675 1103.05,-182.921"/>
<polygon fill="red" stroke="red" points="1099.6,-183.502 1104.59,-192.847 1106.52,-182.429 1099.6,-183.502"/>
<text text-anchor="middle" x="1052.65" y="-46.631" font-family="Times,serif" font-size="14.00">379</text>
</g>
<!-- orgapachecommonsmath3geometryeuclideantwodPolygonsSet6212615026144&#45;&gt;ok -->
<g id="edge24" class="edge"><title>orgapachecommonsmath3geometryeuclideantwodPolygonsSet6212615026144&#45;&gt;ok</title>
<path fill="none" stroke="green" d="M1020.01,-78.2876C1036.06,-71.7571 1057.54,-63.0176 1075.16,-55.8494"/>
<polygon fill="green" stroke="green" points="1076.55,-59.0635 1084.49,-52.0528 1073.91,-52.5797 1076.55,-59.0635"/>
<text text-anchor="middle" x="1052.65" y="-72.631" font-family="Times,serif" font-size="14.00">378</text>
</g>
<!-- orgapachecommonsmath3geometryeuclideantwodPolygonsSet6212615026144&#45;&gt;ko -->
<g id="edge25" class="edge"><title>orgapachecommonsmath3geometryeuclideantwodPolygonsSet6212615026144&#45;&gt;ko</title>
<path fill="none" stroke="red" d="M1021.78,-95.3753C1035.4,-100.486 1051.71,-108.416 1063.15,-119.831 1080.82,-137.456 1092.44,-163.581 1099.28,-183.324"/>
<polygon fill="red" stroke="red" points="1096,-184.562 1102.42,-192.987 1102.65,-182.395 1096,-184.562"/>
<text text-anchor="middle" x="1052.65" y="-123.631" font-family="Times,serif" font-size="14.00">378</text>
</g>
</g>
</svg>
