<?xml version="1.0" encoding="UTF-8" standalone="no"?>
<!DOCTYPE svg PUBLIC "-//W3C//DTD SVG 1.1//EN"
 "http://www.w3.org/Graphics/SVG/1.1/DTD/svg11.dtd">
<!-- Generated by graphviz version 2.38.0 (20140413.2041)
 -->
<!-- Title: g Pages: 1 -->
<svg width="367pt" height="124pt"
 viewBox="0.00 0.00 366.99 124.00" xmlns="http://www.w3.org/2000/svg" xmlns:xlink="http://www.w3.org/1999/xlink">
<g id="graph0" class="graph" transform="scale(1 1) rotate(0) translate(4 120)">
<title>g</title>
<polygon fill="white" stroke="none" points="-4,4 -4,-120 362.985,-120 362.985,4 -4,4"/>
<!-- ok -->
<g id="node1" class="node"><title>ok</title>
<ellipse fill="none" stroke="green" cx="331.985" cy="-91" rx="27" ry="18"/>
<text text-anchor="middle" x="331.985" y="-87.3" font-family="Times,serif" font-size="14.00">Ok</text>
</g>
<!-- ko -->
<g id="node2" class="node"><title>ko</title>
<ellipse fill="none" stroke="red" cx="233.388" cy="-72" rx="27" ry="18"/>
<text text-anchor="middle" x="233.388" y="-68.3" font-family="Times,serif" font-size="14.00">Ko</text>
</g>
<!-- start -->
<g id="node3" class="node"><title>start</title>
<ellipse fill="none" stroke="black" cx="27.2976" cy="-72" rx="27.0966" ry="18"/>
<text text-anchor="middle" x="27.2976" y="-68.3" font-family="Times,serif" font-size="14.00">Start</text>
</g>
<!-- orgapachecommonsmathanalysissolversBisectionSolver8831383127 -->
<g id="node4" class="node"><title>orgapachecommonsmathanalysissolversBisectionSolver8831383127</title>
<ellipse fill="none" stroke="black" cx="133.193" cy="-72" rx="28.6953" ry="18"/>
<text text-anchor="middle" x="133.193" y="-68.3" font-family="Times,serif" font-size="14.00">DP 1</text>
</g>
<!-- start&#45;&gt;orgapachecommonsmathanalysissolversBisectionSolver8831383127 -->
<g id="edge1" class="edge"><title>start&#45;&gt;orgapachecommonsmathanalysissolversBisectionSolver8831383127</title>
<path fill="none" stroke="green" stroke-width="4" d="M54.7835,-72C66.738,-72 81.0826,-72 94.1577,-72"/>
<polygon fill="green" stroke="green" stroke-width="4" points="94.3016,-75.5001 104.302,-72 94.3015,-68.5001 94.3016,-75.5001"/>
<text text-anchor="middle" x="79.5952" y="-75.8" font-family="Times,serif" font-size="14.00">13</text>
</g>
<!-- start&#45;&gt;orgapachecommonsmathanalysissolversBisectionSolver8831383127 -->
<g id="edge2" class="edge"><title>start&#45;&gt;orgapachecommonsmathanalysissolversBisectionSolver8831383127</title>
<path fill="none" stroke="red" d="M49.3575,-60.9059C56.5294,-57.6924 64.7261,-54.6164 72.5952,-53 82.4642,-50.9728 93.0072,-52.9102 102.44,-56.2049"/>
<polygon fill="red" stroke="red" points="101.211,-59.4837 111.792,-60.0204 103.855,-53.0023 101.211,-59.4837"/>
<text text-anchor="middle" x="79.5952" y="-56.8" font-family="Times,serif" font-size="14.00">1</text>
</g>
<!-- orgapachecommonsmathanalysissolversBisectionSolver8831383127&#45;&gt;ok -->
<g id="edge3" class="edge"><title>orgapachecommonsmathanalysissolversBisectionSolver8831383127&#45;&gt;ok</title>
<path fill="none" stroke="green" stroke-width="2" d="M157.238,-82.0506C164.413,-85.0584 172.385,-88.2778 179.79,-91 190.74,-95.025 193.264,-97.2007 204.79,-99 229.906,-102.921 236.607,-100.466 261.985,-99 272.82,-98.374 284.565,-97.1993 295.241,-95.9392"/>
<polygon fill="green" stroke="green" stroke-width="2" points="295.994,-99.3727 305.487,-94.6678 295.132,-92.426 295.994,-99.3727"/>
<text text-anchor="middle" x="233.388" y="-104.8" font-family="Times,serif" font-size="14.00">6</text>
</g>
<!-- orgapachecommonsmathanalysissolversBisectionSolver8831383127&#45;&gt;ko -->
<g id="edge4" class="edge"><title>orgapachecommonsmathanalysissolversBisectionSolver8831383127&#45;&gt;ko</title>
<path fill="none" stroke="red" d="M161.807,-72C172.491,-72 184.865,-72 196.241,-72"/>
<polygon fill="red" stroke="red" points="196.33,-75.5001 206.33,-72 196.33,-68.5001 196.33,-75.5001"/>
<text text-anchor="middle" x="183.29" y="-75.8" font-family="Times,serif" font-size="14.00">1</text>
</g>
<!-- orgapachecommonsmathanalysissolversBisectionSolver8931663157 -->
<g id="node5" class="node"><title>orgapachecommonsmathanalysissolversBisectionSolver8931663157</title>
<ellipse fill="none" stroke="black" cx="233.388" cy="-18" rx="28.6953" ry="18"/>
<text text-anchor="middle" x="233.388" y="-14.3" font-family="Times,serif" font-size="14.00">DP 2</text>
</g>
<!-- orgapachecommonsmathanalysissolversBisectionSolver8831383127&#45;&gt;orgapachecommonsmathanalysissolversBisectionSolver8931663157 -->
<g id="edge5" class="edge"><title>orgapachecommonsmathanalysissolversBisectionSolver8831383127&#45;&gt;orgapachecommonsmathanalysissolversBisectionSolver8931663157</title>
<path fill="none" stroke="green" stroke-width="2" d="M155.499,-60.2828C169.139,-52.782 187.046,-42.9348 202.146,-34.6306"/>
<polygon fill="green" stroke="green" stroke-width="2" points="204.046,-37.5799 211.122,-29.6943 200.673,-31.4462 204.046,-37.5799"/>
<text text-anchor="middle" x="183.29" y="-50.8" font-family="Times,serif" font-size="14.00">7</text>
</g>
<!-- orgapachecommonsmathanalysissolversBisectionSolver8931663157&#45;&gt;ok -->
<g id="edge6" class="edge"><title>orgapachecommonsmathanalysissolversBisectionSolver8931663157&#45;&gt;ok</title>
<path fill="none" stroke="green" stroke-width="2" d="M252.557,-31.7307C267.45,-42.9854 288.706,-59.0489 305.333,-71.6144"/>
<polygon fill="green" stroke="green" stroke-width="2" points="303.46,-74.5857 313.548,-77.8225 307.68,-69.001 303.46,-74.5857"/>
<text text-anchor="middle" x="283.485" y="-59.8" font-family="Times,serif" font-size="14.00">7</text>
</g>
</g>
</svg>
