<?xml version="1.0" encoding="UTF-8" standalone="no"?>
<!DOCTYPE svg PUBLIC "-//W3C//DTD SVG 1.1//EN"
 "http://www.w3.org/Graphics/SVG/1.1/DTD/svg11.dtd">
<!-- Generated by graphviz version 2.38.0 (20140413.2041)
 -->
<!-- Title: g Pages: 1 -->
<svg width="952pt" height="531pt"
 viewBox="0.00 0.00 951.96 531.00" xmlns="http://www.w3.org/2000/svg" xmlns:xlink="http://www.w3.org/1999/xlink">
<g id="graph0" class="graph" transform="scale(1 1) rotate(0) translate(4 527)">
<title>g</title>
<polygon fill="white" stroke="none" points="-4,4 -4,-527 947.96,-527 947.96,4 -4,4"/>
<!-- ok -->
<g id="node1" class="node"><title>ok</title>
<ellipse fill="none" stroke="green" cx="916.96" cy="-401" rx="27" ry="18"/>
<text text-anchor="middle" x="916.96" y="-397.3" font-family="Times,serif" font-size="14.00">Ok</text>
</g>
<!-- ko -->
<g id="node2" class="node"><title>ko</title>
<ellipse fill="none" stroke="red" cx="916.96" cy="-151" rx="27" ry="18"/>
<text text-anchor="middle" x="916.96" y="-147.3" font-family="Times,serif" font-size="14.00">Ko</text>
</g>
<!-- start -->
<g id="node3" class="node"><title>start</title>
<ellipse fill="none" stroke="black" cx="27.2976" cy="-395" rx="27.0966" ry="18"/>
<text text-anchor="middle" x="27.2976" y="-391.3" font-family="Times,serif" font-size="14.00">Start</text>
</g>
<!-- orgapachepdfboxpdmodelgraphicscolorPDColorSpaceFactory25888448817 -->
<g id="node4" class="node"><title>orgapachepdfboxpdmodelgraphicscolorPDColorSpaceFactory25888448817</title>
<ellipse fill="none" stroke="black" cx="140.193" cy="-395" rx="28.6953" ry="18"/>
<text text-anchor="middle" x="140.193" y="-391.3" font-family="Times,serif" font-size="14.00">DP 1</text>
</g>
<!-- start&#45;&gt;orgapachepdfboxpdmodelgraphicscolorPDColorSpaceFactory25888448817 -->
<g id="edge1" class="edge"><title>start&#45;&gt;orgapachepdfboxpdmodelgraphicscolorPDColorSpaceFactory25888448817</title>
<path fill="none" stroke="green" stroke-width="2" d="M54.8597,-395C68.7083,-395 85.8922,-395 101.128,-395"/>
<polygon fill="green" stroke="green" stroke-width="2" points="101.3,-398.5 111.3,-395 101.3,-391.5 101.3,-398.5"/>
<text text-anchor="middle" x="83.0952" y="-398.8" font-family="Times,serif" font-size="14.00">168</text>
</g>
<!-- start&#45;&gt;orgapachepdfboxpdmodelgraphicscolorPDColorSpaceFactory25888448817 -->
<g id="edge2" class="edge"><title>start&#45;&gt;orgapachepdfboxpdmodelgraphicscolorPDColorSpaceFactory25888448817</title>
<path fill="none" stroke="red" stroke-width="2" d="M49.3575,-383.906C56.5294,-380.692 64.7261,-377.616 72.5952,-376 84.5282,-373.549 97.4475,-376.014 108.703,-379.888"/>
<polygon fill="red" stroke="red" stroke-width="2" points="107.512,-383.18 118.1,-383.567 110.064,-376.662 107.512,-383.18"/>
<text text-anchor="middle" x="83.0952" y="-379.8" font-family="Times,serif" font-size="14.00">126</text>
</g>
<!-- orgapachepdfboxpdmodelgraphicscolorPDColorSpaceFactory25888448817&#45;&gt;ok -->
<g id="edge36" class="edge"><title>orgapachepdfboxpdmodelgraphicscolorPDColorSpaceFactory25888448817&#45;&gt;ok</title>
<path fill="none" stroke="green" d="M148.771,-412.656C163.738,-444.438 200.308,-508 253.388,-508 253.388,-508 253.388,-508 805.362,-508 851.606,-508 885.877,-459.082 903.224,-427.398"/>
<polygon fill="green" stroke="green" points="906.509,-428.672 908.059,-418.191 900.311,-425.418 906.509,-428.672"/>
<text text-anchor="middle" x="529.375" y="-511.8" font-family="Times,serif" font-size="14.00">2</text>
</g>
<!-- orgapachepdfboxpdmodelgraphicscolorPDColorSpaceFactory25888448817&#45;&gt;ko -->
<g id="edge3" class="edge"><title>orgapachepdfboxpdmodelgraphicscolorPDColorSpaceFactory25888448817&#45;&gt;ko</title>
<path fill="none" stroke="red" d="M142.342,-377.001C147.761,-299.728 173.9,-0 253.388,-0 253.388,-0 253.388,-0 805.362,-0 865.829,-0 896.827,-79.7822 909.248,-123.362"/>
<polygon fill="red" stroke="red" points="905.889,-124.349 911.883,-133.085 912.645,-122.518 905.889,-124.349"/>
<text text-anchor="middle" x="529.375" y="-3.8" font-family="Times,serif" font-size="14.00">4</text>
</g>
<!-- orgapachepdfboxpdmodelcommonPDStream21963196289 -->
<g id="node5" class="node"><title>orgapachepdfboxpdmodelcommonPDStream21963196289</title>
<ellipse fill="none" stroke="black" cx="254.388" cy="-320" rx="28.6953" ry="18"/>
<text text-anchor="middle" x="254.388" y="-316.3" font-family="Times,serif" font-size="14.00">DP 2</text>
</g>
<!-- orgapachepdfboxpdmodelgraphicscolorPDColorSpaceFactory25888448817&#45;&gt;orgapachepdfboxpdmodelcommonPDStream21963196289 -->
<g id="edge16" class="edge"><title>orgapachepdfboxpdmodelgraphicscolorPDColorSpaceFactory25888448817&#45;&gt;orgapachepdfboxpdmodelcommonPDStream21963196289</title>
<path fill="none" stroke="green" stroke-width="2" d="M160.48,-382.107C178.381,-370.141 205.235,-352.189 225.476,-338.658"/>
<polygon fill="green" stroke="green" stroke-width="2" points="227.608,-341.443 233.977,-332.976 223.718,-335.623 227.608,-341.443"/>
<text text-anchor="middle" x="197.29" y="-368.8" font-family="Times,serif" font-size="14.00">156</text>
</g>
<!-- orgapachepdfboxpdmodelgraphicscolorPDColorSpaceFactory25888448817&#45;&gt;orgapachepdfboxpdmodelcommonPDStream21963196289 -->
<g id="edge17" class="edge"><title>orgapachepdfboxpdmodelgraphicscolorPDColorSpaceFactory25888448817&#45;&gt;orgapachepdfboxpdmodelcommonPDStream21963196289</title>
<path fill="none" stroke="red" d="M149.052,-377.664C156.599,-363.085 169.416,-342.924 186.79,-332 195.353,-326.616 205.688,-323.497 215.636,-321.727"/>
<polygon fill="red" stroke="red" points="216.341,-325.163 225.771,-320.333 215.388,-318.228 216.341,-325.163"/>
<text text-anchor="middle" x="197.29" y="-335.8" font-family="Times,serif" font-size="14.00">116</text>
</g>
<!-- orgapachepdfboxpdmodelgraphicscolorPDColorSpaceFactory25989058863 -->
<g id="node11" class="node"><title>orgapachepdfboxpdmodelgraphicscolorPDColorSpaceFactory25989058863</title>
<ellipse fill="none" stroke="black" cx="475.777" cy="-378" rx="28.6953" ry="18"/>
<text text-anchor="middle" x="475.777" y="-374.3" font-family="Times,serif" font-size="14.00">DP 8</text>
</g>
<!-- orgapachepdfboxpdmodelgraphicscolorPDColorSpaceFactory25888448817&#45;&gt;orgapachepdfboxpdmodelgraphicscolorPDColorSpaceFactory25989058863 -->
<g id="edge4" class="edge"><title>orgapachepdfboxpdmodelgraphicscolorPDColorSpaceFactory25888448817&#45;&gt;orgapachepdfboxpdmodelgraphicscolorPDColorSpaceFactory25989058863</title>
<path fill="none" stroke="green" d="M156.708,-409.903C164.952,-416.806 175.666,-424.289 186.79,-428 288.982,-462.092 331.036,-472.422 429.18,-428 440.935,-422.679 450.996,-412.721 458.653,-403.084"/>
<polygon fill="green" stroke="green" points="461.627,-404.948 464.746,-394.822 455.994,-400.793 461.627,-404.948"/>
<text text-anchor="middle" x="311.485" y="-460.8" font-family="Times,serif" font-size="14.00">10</text>
</g>
<!-- orgapachepdfboxpdmodelgraphicscolorPDColorSpaceFactory25888448817&#45;&gt;orgapachepdfboxpdmodelgraphicscolorPDColorSpaceFactory25989058863 -->
<g id="edge5" class="edge"><title>orgapachepdfboxpdmodelgraphicscolorPDColorSpaceFactory25888448817&#45;&gt;orgapachepdfboxpdmodelgraphicscolorPDColorSpaceFactory25989058863</title>
<path fill="none" stroke="red" d="M168.775,-393.594C228.34,-390.559 369.088,-383.386 436.925,-379.929"/>
<polygon fill="red" stroke="red" points="437.354,-383.412 447.163,-379.407 436.998,-376.421 437.354,-383.412"/>
<text text-anchor="middle" x="311.485" y="-389.8" font-family="Times,serif" font-size="14.00">6</text>
</g>
<!-- orgapachepdfboxpdmodelcommonPDStream21963196289&#45;&gt;ko -->
<g id="edge20" class="edge"><title>orgapachepdfboxpdmodelcommonPDStream21963196289&#45;&gt;ko</title>
<path fill="none" stroke="red" d="M258.683,-302.022C270.361,-241.064 312.067,-46 367.582,-46 367.582,-46 367.582,-46 805.362,-46 850.951,-46 885.247,-93.5021 902.818,-124.606"/>
<polygon fill="red" stroke="red" points="899.884,-126.539 907.728,-133.661 906.038,-123.202 899.884,-126.539"/>
<text text-anchor="middle" x="582.972" y="-49.8" font-family="Times,serif" font-size="14.00">8</text>
</g>
<!-- orgapachepdfboxioRandomAccessFileOutputStream5219011890 -->
<g id="node6" class="node"><title>orgapachepdfboxioRandomAccessFileOutputStream5219011890</title>
<ellipse fill="none" stroke="black" cx="368.582" cy="-252" rx="28.6953" ry="18"/>
<text text-anchor="middle" x="368.582" y="-248.3" font-family="Times,serif" font-size="14.00">DP 3</text>
</g>
<!-- orgapachepdfboxpdmodelcommonPDStream21963196289&#45;&gt;orgapachepdfboxioRandomAccessFileOutputStream5219011890 -->
<g id="edge21" class="edge"><title>orgapachepdfboxpdmodelcommonPDStream21963196289&#45;&gt;orgapachepdfboxioRandomAccessFileOutputStream5219011890</title>
<path fill="none" stroke="green" stroke-width="2" d="M275.264,-307.136C283.221,-302.045 292.497,-296.182 300.985,-291 312.986,-283.673 326.34,-275.799 337.92,-269.058"/>
<polygon fill="green" stroke="green" stroke-width="2" points="339.873,-271.972 346.767,-263.927 336.361,-265.916 339.873,-271.972"/>
<text text-anchor="middle" x="311.485" y="-294.8" font-family="Times,serif" font-size="14.00">136</text>
</g>
<!-- orgapachepdfboxpdmodelcommonPDStream21963196289&#45;&gt;orgapachepdfboxioRandomAccessFileOutputStream5219011890 -->
<g id="edge22" class="edge"><title>orgapachepdfboxpdmodelcommonPDStream21963196289&#45;&gt;orgapachepdfboxioRandomAccessFileOutputStream5219011890</title>
<path fill="none" stroke="red" d="M263.347,-302.611C270.882,-288.315 283.627,-268.865 300.985,-259 309.687,-254.054 320.068,-251.644 330.015,-250.622"/>
<polygon fill="red" stroke="red" points="330.363,-254.107 340.134,-250.012 329.942,-247.12 330.363,-254.107"/>
<text text-anchor="middle" x="311.485" y="-262.8" font-family="Times,serif" font-size="14.00">96</text>
</g>
<!-- orgapachepdfboxpdmodelcommonPDStream21963196289&#45;&gt;orgapachepdfboxpdmodelgraphicscolorPDColorSpaceFactory25989058863 -->
<g id="edge18" class="edge"><title>orgapachepdfboxpdmodelcommonPDStream21963196289&#45;&gt;orgapachepdfboxpdmodelgraphicscolorPDColorSpaceFactory25989058863</title>
<path fill="none" stroke="green" d="M280.407,-327.928C287.075,-329.973 294.286,-332.125 300.985,-334 348.451,-347.287 403.699,-360.973 438.936,-369.48"/>
<polygon fill="green" stroke="green" points="438.218,-372.907 448.759,-371.842 439.855,-366.101 438.218,-372.907"/>
<text text-anchor="middle" x="368.582" y="-363.8" font-family="Times,serif" font-size="14.00">20</text>
</g>
<!-- orgapachepdfboxpdmodelcommonPDStream21963196289&#45;&gt;orgapachepdfboxpdmodelgraphicscolorPDColorSpaceFactory25989058863 -->
<g id="edge19" class="edge"><title>orgapachepdfboxpdmodelcommonPDStream21963196289&#45;&gt;orgapachepdfboxpdmodelgraphicscolorPDColorSpaceFactory25989058863</title>
<path fill="none" stroke="red" d="M282.818,-316.854C311.964,-314.49 359.012,-313.506 397.18,-326 416.892,-332.452 436.276,-345.437 450.74,-356.816"/>
<polygon fill="red" stroke="red" points="448.691,-359.661 458.653,-363.269 453.115,-354.237 448.691,-359.661"/>
<text text-anchor="middle" x="368.582" y="-329.8" font-family="Times,serif" font-size="14.00">12</text>
</g>
<!-- orgapachepdfboxioRandomAccessFileOutputStream5219011890&#45;&gt;ko -->
<g id="edge33" class="edge"><title>orgapachepdfboxioRandomAccessFileOutputStream5219011890&#45;&gt;ko</title>
<path fill="none" stroke="red" d="M377.473,-234.832C385.198,-219.677 398.262,-197.891 415.18,-184 494.148,-119.162 528.707,-117.328 629.57,-101 719.046,-86.5157 744.565,-95.9449 832.96,-116 851.399,-120.184 870.935,-128.222 886.418,-135.542"/>
<polygon fill="red" stroke="red" points="884.967,-138.728 895.489,-139.965 888.035,-132.436 884.967,-138.728"/>
<text text-anchor="middle" x="636.57" y="-104.8" font-family="Times,serif" font-size="14.00">8</text>
</g>
<!-- orgapachepdfboxioRandomAccessFileOutputStream10633623327 -->
<g id="node7" class="node"><title>orgapachepdfboxioRandomAccessFileOutputStream10633623327</title>
<ellipse fill="none" stroke="black" cx="475.777" cy="-201" rx="28.6953" ry="18"/>
<text text-anchor="middle" x="475.777" y="-197.3" font-family="Times,serif" font-size="14.00">DP 4</text>
</g>
<!-- orgapachepdfboxioRandomAccessFileOutputStream5219011890&#45;&gt;orgapachepdfboxioRandomAccessFileOutputStream10633623327 -->
<g id="edge23" class="edge"><title>orgapachepdfboxioRandomAccessFileOutputStream5219011890&#45;&gt;orgapachepdfboxioRandomAccessFileOutputStream10633623327</title>
<path fill="none" stroke="green" d="M384.806,-236.704C393.135,-229.139 404.015,-220.479 415.18,-215 422.146,-211.582 429.986,-208.974 437.635,-206.993"/>
<polygon fill="green" stroke="green" points="438.525,-210.38 447.49,-204.735 436.961,-203.557 438.525,-210.38"/>
<text text-anchor="middle" x="422.18" y="-218.8" font-family="Times,serif" font-size="14.00">96</text>
</g>
<!-- orgapachepdfboxioRandomAccessFileOutputStream5219011890&#45;&gt;orgapachepdfboxioRandomAccessFileOutputStream10633623327 -->
<g id="edge24" class="edge"><title>orgapachepdfboxioRandomAccessFileOutputStream5219011890&#45;&gt;orgapachepdfboxioRandomAccessFileOutputStream10633623327</title>
<path fill="none" stroke="red" d="M377.003,-234.723C384.339,-220.08 397.093,-200.061 415.18,-191 423.426,-186.869 433.037,-186.754 442.103,-188.385"/>
<polygon fill="red" stroke="red" points="441.457,-191.83 452.006,-190.846 443.145,-185.037 441.457,-191.83"/>
<text text-anchor="middle" x="422.18" y="-194.8" font-family="Times,serif" font-size="14.00">64</text>
</g>
<!-- orgapachepdfboxioRandomAccessFileOutputStream5219011890&#45;&gt;orgapachepdfboxpdmodelgraphicscolorPDColorSpaceFactory25989058863 -->
<g id="edge34" class="edge"><title>orgapachepdfboxioRandomAccessFileOutputStream5219011890&#45;&gt;orgapachepdfboxpdmodelgraphicscolorPDColorSpaceFactory25989058863</title>
<path fill="none" stroke="green" d="M391.69,-262.871C403.875,-269.683 418.625,-279.372 429.18,-291 445.113,-308.553 457.188,-332.698 464.896,-351.098"/>
<polygon fill="green" stroke="green" points="461.653,-352.415 468.626,-360.391 468.149,-349.807 461.653,-352.415"/>
<text text-anchor="middle" x="422.18" y="-294.8" font-family="Times,serif" font-size="14.00">40</text>
</g>
<!-- orgapachepdfboxioRandomAccessFileOutputStream5219011890&#45;&gt;orgapachepdfboxpdmodelgraphicscolorPDColorSpaceFactory25989058863 -->
<g id="edge35" class="edge"><title>orgapachepdfboxioRandomAccessFileOutputStream5219011890&#45;&gt;orgapachepdfboxpdmodelgraphicscolorPDColorSpaceFactory25989058863</title>
<path fill="none" stroke="red" d="M397.156,-250.448C408.145,-251.188 420.272,-253.877 429.18,-261 456.236,-282.635 467.272,-322.492 471.751,-349.612"/>
<polygon fill="red" stroke="red" points="468.31,-350.274 473.211,-359.667 475.238,-349.268 468.31,-350.274"/>
<text text-anchor="middle" x="422.18" y="-264.8" font-family="Times,serif" font-size="14.00">24</text>
</g>
<!-- orgapachepdfboxioRandomAccessFileOutputStream10633623327&#45;&gt;ko -->
<g id="edge27" class="edge"><title>orgapachepdfboxioRandomAccessFileOutputStream10633623327&#45;&gt;ko</title>
<path fill="none" stroke="red" d="M489.506,-184.889C507.615,-163.941 542.973,-130 581.972,-130 581.972,-130 581.972,-130 805.362,-130 831.514,-130 860.543,-135.737 882.296,-141.214"/>
<polygon fill="red" stroke="red" points="881.483,-144.619 892.044,-143.773 883.26,-137.849 881.483,-144.619"/>
<text text-anchor="middle" x="690.167" y="-133.8" font-family="Times,serif" font-size="14.00">8</text>
</g>
<!-- orgapachepdfboxioRandomAccessFileOutputStream10834363405 -->
<g id="node8" class="node"><title>orgapachepdfboxioRandomAccessFileOutputStream10834363405</title>
<ellipse fill="none" stroke="black" cx="582.972" cy="-177" rx="28.6953" ry="18"/>
<text text-anchor="middle" x="582.972" y="-173.3" font-family="Times,serif" font-size="14.00">DP 5</text>
</g>
<!-- orgapachepdfboxioRandomAccessFileOutputStream10633623327&#45;&gt;orgapachepdfboxioRandomAccessFileOutputStream10834363405 -->
<g id="edge28" class="edge"><title>orgapachepdfboxioRandomAccessFileOutputStream10633623327&#45;&gt;orgapachepdfboxioRandomAccessFileOutputStream10834363405</title>
<path fill="none" stroke="green" d="M502.781,-195.067C515.804,-192.096 531.779,-188.452 545.961,-185.216"/>
<polygon fill="green" stroke="green" points="546.933,-188.584 555.904,-182.948 545.376,-181.76 546.933,-188.584"/>
<text text-anchor="middle" x="529.375" y="-194.8" font-family="Times,serif" font-size="14.00">64</text>
</g>
<!-- orgapachepdfboxioRandomAccessFileOutputStream10633623327&#45;&gt;orgapachepdfboxioRandomAccessFileOutputStream10834363405 -->
<g id="edge29" class="edge"><title>orgapachepdfboxioRandomAccessFileOutputStream10633623327&#45;&gt;orgapachepdfboxioRandomAccessFileOutputStream10834363405</title>
<path fill="none" stroke="red" d="M492.756,-186.125C500.955,-179.505 511.493,-172.437 522.375,-169 530.214,-166.524 538.87,-166.328 547.098,-167.244"/>
<polygon fill="red" stroke="red" points="546.762,-170.736 557.199,-168.911 547.902,-163.829 546.762,-170.736"/>
<text text-anchor="middle" x="529.375" y="-172.8" font-family="Times,serif" font-size="14.00">40</text>
</g>
<!-- orgapachepdfboxpdmodelgraphicscolorPDICCBased24473887371 -->
<g id="node9" class="node"><title>orgapachepdfboxpdmodelgraphicscolorPDICCBased24473887371</title>
<ellipse fill="none" stroke="black" cx="690.167" cy="-269" rx="28.6953" ry="18"/>
<text text-anchor="middle" x="690.167" y="-265.3" font-family="Times,serif" font-size="14.00">DP 6</text>
</g>
<!-- orgapachepdfboxioRandomAccessFileOutputStream10633623327&#45;&gt;orgapachepdfboxpdmodelgraphicscolorPDICCBased24473887371 -->
<g id="edge25" class="edge"><title>orgapachepdfboxioRandomAccessFileOutputStream10633623327&#45;&gt;orgapachepdfboxpdmodelgraphicscolorPDICCBased24473887371</title>
<path fill="none" stroke="green" d="M501.557,-208.934C539.343,-221.032 611.5,-244.134 654.476,-257.893"/>
<polygon fill="green" stroke="green" points="653.626,-261.296 664.217,-261.012 655.761,-254.629 653.626,-261.296"/>
<text text-anchor="middle" x="582.972" y="-247.8" font-family="Times,serif" font-size="14.00">32</text>
</g>
<!-- orgapachepdfboxioRandomAccessFileOutputStream10633623327&#45;&gt;orgapachepdfboxpdmodelgraphicscolorPDICCBased24473887371 -->
<g id="edge26" class="edge"><title>orgapachepdfboxioRandomAccessFileOutputStream10633623327&#45;&gt;orgapachepdfboxpdmodelgraphicscolorPDICCBased24473887371</title>
<path fill="none" stroke="red" d="M491.508,-216.319C506.041,-230.35 529.617,-250.356 554.375,-260 585.574,-272.153 623.895,-273.551 651.692,-272.409"/>
<polygon fill="red" stroke="red" points="651.996,-275.898 661.793,-271.864 651.619,-268.908 651.996,-275.898"/>
<text text-anchor="middle" x="582.972" y="-275.8" font-family="Times,serif" font-size="14.00">16</text>
</g>
<!-- orgapachepdfboxioRandomAccessFileOutputStream10834363405&#45;&gt;ko -->
<g id="edge32" class="edge"><title>orgapachepdfboxioRandomAccessFileOutputStream10834363405&#45;&gt;ko</title>
<path fill="none" stroke="red" d="M611.423,-174.85C671.145,-170.173 812.872,-159.073 879.788,-153.833"/>
<polygon fill="red" stroke="red" points="880.165,-157.314 889.861,-153.044 879.618,-150.335 880.165,-157.314"/>
<text text-anchor="middle" x="747.265" y="-168.8" font-family="Times,serif" font-size="14.00">8</text>
</g>
<!-- orgapachepdfboxioRandomAccessFileOutputStream10834363405&#45;&gt;orgapachepdfboxpdmodelgraphicscolorPDICCBased24473887371 -->
<g id="edge30" class="edge"><title>orgapachepdfboxioRandomAccessFileOutputStream10834363405&#45;&gt;orgapachepdfboxpdmodelgraphicscolorPDICCBased24473887371</title>
<path fill="none" stroke="green" d="M600.765,-191.18C612.757,-201.353 629.237,-215.427 643.57,-228 650.702,-234.257 658.395,-241.127 665.394,-247.424"/>
<polygon fill="green" stroke="green" points="663.447,-250.381 673.215,-254.483 668.136,-245.185 663.447,-250.381"/>
<text text-anchor="middle" x="636.57" y="-231.8" font-family="Times,serif" font-size="14.00">64</text>
</g>
<!-- orgapachepdfboxioRandomAccessFileOutputStream10834363405&#45;&gt;orgapachepdfboxpdmodelgraphicscolorPDICCBased24473887371 -->
<g id="edge31" class="edge"><title>orgapachepdfboxioRandomAccessFileOutputStream10834363405&#45;&gt;orgapachepdfboxpdmodelgraphicscolorPDICCBased24473887371</title>
<path fill="none" stroke="red" d="M610.482,-182.308C621.547,-185.493 634.02,-190.444 643.57,-198 658.271,-209.632 669.669,-227.376 677.392,-242.215"/>
<polygon fill="red" stroke="red" points="674.381,-244.024 681.934,-251.454 680.663,-240.935 674.381,-244.024"/>
<text text-anchor="middle" x="636.57" y="-201.8" font-family="Times,serif" font-size="14.00">32</text>
</g>
<!-- orgapachepdfboxpdmodelgraphicscolorPDICCBased24473887371&#45;&gt;ok -->
<g id="edge14" class="edge"><title>orgapachepdfboxpdmodelgraphicscolorPDICCBased24473887371&#45;&gt;ok</title>
<path fill="none" stroke="green" d="M708.449,-283.302C716.78,-289.924 727.053,-297.701 736.765,-304 787.031,-336.604 849.219,-368.523 885.553,-386.394"/>
<polygon fill="green" stroke="green" points="884.126,-389.592 894.647,-390.838 887.2,-383.303 884.126,-389.592"/>
<text text-anchor="middle" x="804.362" y="-363.8" font-family="Times,serif" font-size="14.00">38</text>
</g>
<!-- orgapachepdfboxpdmodelgraphicscolorPDICCBased24473887371&#45;&gt;ko -->
<g id="edge9" class="edge"><title>orgapachepdfboxpdmodelgraphicscolorPDICCBased24473887371&#45;&gt;ko</title>
<path fill="none" stroke="red" d="M715.278,-260.374C750.91,-247.125 819.113,-219.822 871.96,-187 879.034,-182.606 886.225,-177.198 892.687,-171.922"/>
<polygon fill="red" stroke="red" points="895.035,-174.52 900.419,-165.395 890.519,-169.171 895.035,-174.52"/>
<text text-anchor="middle" x="804.362" y="-239.8" font-family="Times,serif" font-size="14.00">38</text>
</g>
<!-- orgapachepdfboxpdmodelgraphicscolorPDICCBased24474127371 -->
<g id="node10" class="node"><title>orgapachepdfboxpdmodelgraphicscolorPDICCBased24474127371</title>
<ellipse fill="none" stroke="black" cx="804.362" cy="-281" rx="28.6953" ry="18"/>
<text text-anchor="middle" x="804.362" y="-277.3" font-family="Times,serif" font-size="14.00">DP 7</text>
</g>
<!-- orgapachepdfboxpdmodelgraphicscolorPDICCBased24473887371&#45;&gt;orgapachepdfboxpdmodelgraphicscolorPDICCBased24474127371 -->
<g id="edge10" class="edge"><title>orgapachepdfboxpdmodelgraphicscolorPDICCBased24473887371&#45;&gt;orgapachepdfboxpdmodelgraphicscolorPDICCBased24474127371</title>
<path fill="none" stroke="green" d="M715.467,-277.924C722.265,-280.016 729.722,-281.943 736.765,-283 746.173,-284.412 756.411,-284.71 765.973,-284.464"/>
<polygon fill="green" stroke="green" points="766.182,-287.959 776.014,-284.011 765.866,-280.966 766.182,-287.959"/>
<text text-anchor="middle" x="747.265" y="-288.8" font-family="Times,serif" font-size="14.00">114</text>
</g>
<!-- orgapachepdfboxpdmodelgraphicscolorPDICCBased24473887371&#45;&gt;orgapachepdfboxpdmodelgraphicscolorPDICCBased24474127371 -->
<g id="edge11" class="edge"><title>orgapachepdfboxpdmodelgraphicscolorPDICCBased24473887371&#45;&gt;orgapachepdfboxpdmodelgraphicscolorPDICCBased24474127371</title>
<path fill="none" stroke="red" d="M717.9,-263.926C730.127,-262.389 744.757,-261.654 757.765,-264 762.187,-264.798 766.74,-265.998 771.178,-267.398"/>
<polygon fill="red" stroke="red" points="770.022,-270.702 780.617,-270.707 772.338,-264.096 770.022,-270.702"/>
<text text-anchor="middle" x="747.265" y="-267.8" font-family="Times,serif" font-size="14.00">38</text>
</g>
<!-- orgapachepdfboxpdmodelgraphicscolorPDICCBased24474127371&#45;&gt;ok -->
<g id="edge13" class="edge"><title>orgapachepdfboxpdmodelgraphicscolorPDICCBased24474127371&#45;&gt;ok</title>
<path fill="none" stroke="green" d="M831.579,-286.757C844.995,-290.817 860.805,-297.461 871.96,-308 890.73,-325.735 902.333,-353.099 908.877,-373.561"/>
<polygon fill="green" stroke="green" points="905.558,-374.679 911.771,-383.261 912.266,-372.677 905.558,-374.679"/>
<text text-anchor="middle" x="861.46" y="-311.8" font-family="Times,serif" font-size="14.00">114</text>
</g>
<!-- orgapachepdfboxpdmodelgraphicscolorPDICCBased24474127371&#45;&gt;ko -->
<g id="edge12" class="edge"><title>orgapachepdfboxpdmodelgraphicscolorPDICCBased24474127371&#45;&gt;ko</title>
<path fill="none" stroke="red" d="M827.571,-270.147C841.647,-262.415 859.485,-250.941 871.96,-237 887.34,-219.811 898.894,-196.27 906.294,-178.163"/>
<polygon fill="red" stroke="red" points="909.597,-179.325 909.975,-168.737 903.077,-176.778 909.597,-179.325"/>
<text text-anchor="middle" x="861.46" y="-258.8" font-family="Times,serif" font-size="14.00">38</text>
</g>
<!-- orgapachepdfboxpdmodelgraphicscolorPDColorSpaceFactory25989058863&#45;&gt;ok -->
<g id="edge6" class="edge"><title>orgapachepdfboxpdmodelgraphicscolorPDColorSpaceFactory25989058863&#45;&gt;ok</title>
<path fill="none" stroke="green" d="M485.55,-395.043C493.507,-409.041 506.42,-428.526 522.375,-441 544.87,-458.588 553.417,-465 581.972,-465 581.972,-465 581.972,-465 805.362,-465 839.786,-465 873.114,-441.485 894.026,-422.962"/>
<polygon fill="green" stroke="green" points="896.421,-425.514 901.409,-416.167 891.681,-420.364 896.421,-425.514"/>
<text text-anchor="middle" x="690.167" y="-468.8" font-family="Times,serif" font-size="14.00">14</text>
</g>
<!-- orgapachepdfboxpdmodelgraphicscolorPDColorSpaceFactory25989058863&#45;&gt;ko -->
<g id="edge15" class="edge"><title>orgapachepdfboxpdmodelgraphicscolorPDColorSpaceFactory25989058863&#45;&gt;ko</title>
<path fill="none" stroke="red" d="M500.611,-387.111C507.535,-389.409 515.173,-391.614 522.375,-393 536.368,-395.693 540.132,-394.555 554.375,-395 678.334,-398.87 724.106,-438.428 832.96,-379 903.894,-340.274 915.125,-231.538 916.299,-179.477"/>
<polygon fill="red" stroke="red" points="919.801,-179.313 916.414,-169.274 912.801,-179.234 919.801,-179.313"/>
<text text-anchor="middle" x="690.167" y="-414.8" font-family="Times,serif" font-size="14.00">14</text>
</g>
<!-- orgapachepdfboxpdmodelgraphicscolorPDColorSpaceFactory25989058863&#45;&gt;orgapachepdfboxpdmodelgraphicscolorPDICCBased24473887371 -->
<g id="edge7" class="edge"><title>orgapachepdfboxpdmodelgraphicscolorPDColorSpaceFactory25989058863&#45;&gt;orgapachepdfboxpdmodelgraphicscolorPDICCBased24473887371</title>
<path fill="none" stroke="green" d="M504.555,-379.574C540.015,-380.182 601.767,-376.39 643.57,-347 661.054,-334.707 672.844,-313.403 680.048,-296.163"/>
<polygon fill="green" stroke="green" points="683.411,-297.169 683.768,-286.581 676.886,-294.636 683.411,-297.169"/>
<text text-anchor="middle" x="582.972" y="-379.8" font-family="Times,serif" font-size="14.00">56</text>
</g>
<!-- orgapachepdfboxpdmodelgraphicscolorPDColorSpaceFactory25989058863&#45;&gt;orgapachepdfboxpdmodelgraphicscolorPDICCBased24473887371 -->
<g id="edge8" class="edge"><title>orgapachepdfboxpdmodelgraphicscolorPDColorSpaceFactory25989058863&#45;&gt;orgapachepdfboxpdmodelgraphicscolorPDICCBased24473887371</title>
<path fill="none" stroke="red" d="M498.707,-366.746C536.722,-347.236 614.947,-307.091 658.386,-284.797"/>
<polygon fill="red" stroke="red" points="660.058,-287.873 667.357,-280.193 656.862,-281.645 660.058,-287.873"/>
<text text-anchor="middle" x="582.972" y="-341.8" font-family="Times,serif" font-size="14.00">28</text>
</g>
</g>
</svg>
