<?xml version="1.0" encoding="UTF-8" standalone="no"?>
<!DOCTYPE svg PUBLIC "-//W3C//DTD SVG 1.1//EN"
 "http://www.w3.org/Graphics/SVG/1.1/DTD/svg11.dtd">
<!-- Generated by graphviz version 2.38.0 (20140413.2041)
 -->
<!-- Title: g Pages: 1 -->
<svg width="260pt" height="134pt"
 viewBox="0.00 0.00 259.79 134.00" xmlns="http://www.w3.org/2000/svg" xmlns:xlink="http://www.w3.org/1999/xlink">
<g id="graph0" class="graph" transform="scale(1 1) rotate(0) translate(4 130)">
<title>g</title>
<polygon fill="white" stroke="none" points="-4,4 -4,-130 255.79,-130 255.79,4 -4,4"/>
<!-- ok -->
<g id="node1" class="node"><title>ok</title>
<ellipse fill="none" stroke="green" cx="224.79" cy="-108" rx="27" ry="18"/>
<text text-anchor="middle" x="224.79" y="-104.3" font-family="Times,serif" font-size="14.00">Ok</text>
</g>
<!-- ko -->
<g id="node2" class="node"><title>ko</title>
<ellipse fill="none" stroke="red" cx="224.79" cy="-39" rx="27" ry="18"/>
<text text-anchor="middle" x="224.79" y="-35.3" font-family="Times,serif" font-size="14.00">Ko</text>
</g>
<!-- start -->
<g id="node3" class="node"><title>start</title>
<ellipse fill="none" stroke="black" cx="27.2976" cy="-47" rx="27.0966" ry="18"/>
<text text-anchor="middle" x="27.2976" y="-43.3" font-family="Times,serif" font-size="14.00">Start</text>
</g>
<!-- orgapacheslingsecurityimplContentDispositionFilterRewriterResponse2881255412523 -->
<g id="node4" class="node"><title>orgapacheslingsecurityimplContentDispositionFilterRewriterResponse2881255412523</title>
<ellipse fill="none" stroke="black" cx="126.193" cy="-85" rx="28.6953" ry="18"/>
<text text-anchor="middle" x="126.193" y="-81.3" font-family="Times,serif" font-size="14.00">DP 1</text>
</g>
<!-- start&#45;&gt;orgapacheslingsecurityimplContentDispositionFilterRewriterResponse2881255412523 -->
<g id="edge5" class="edge"><title>start&#45;&gt;orgapacheslingsecurityimplContentDispositionFilterRewriterResponse2881255412523</title>
<path fill="none" stroke="green" d="M42.8137,-62.2411C50.8314,-69.6081 61.416,-77.756 72.5952,-82 77.2153,-83.754 82.2282,-84.9012 87.2623,-85.6197"/>
<polygon fill="green" stroke="green" points="87.2306,-89.1311 97.5061,-86.5493 87.8633,-82.1597 87.2306,-89.1311"/>
<text text-anchor="middle" x="76.0952" y="-87.8" font-family="Times,serif" font-size="14.00">5</text>
</g>
<!-- start&#45;&gt;orgapacheslingsecurityimplContentDispositionFilterRewriterResponse2881255412523 -->
<g id="edge6" class="edge"><title>start&#45;&gt;orgapacheslingsecurityimplContentDispositionFilterRewriterResponse2881255412523</title>
<path fill="none" stroke="red" d="M52.8206,-53.8462C61.3865,-56.4481 71.0045,-59.6091 79.5952,-63 84.4775,-64.9271 89.5634,-67.1524 94.492,-69.4317"/>
<polygon fill="red" stroke="red" points="93.149,-72.6689 103.681,-73.8176 96.1642,-66.3515 93.149,-72.6689"/>
<text text-anchor="middle" x="76.0952" y="-66.8" font-family="Times,serif" font-size="14.00">3</text>
</g>
<!-- orgapacheslingsecurityimplContentDispositionFilterRewriterResponse2941287212841 -->
<g id="node5" class="node"><title>orgapacheslingsecurityimplContentDispositionFilterRewriterResponse2941287212841</title>
<ellipse fill="none" stroke="black" cx="126.193" cy="-18" rx="28.6953" ry="18"/>
<text text-anchor="middle" x="126.193" y="-14.3" font-family="Times,serif" font-size="14.00">DP 2</text>
</g>
<!-- start&#45;&gt;orgapacheslingsecurityimplContentDispositionFilterRewriterResponse2941287212841 -->
<g id="edge1" class="edge"><title>start&#45;&gt;orgapacheslingsecurityimplContentDispositionFilterRewriterResponse2941287212841</title>
<path fill="none" stroke="green" d="M50.5503,-37.0466C57.5148,-34.1796 65.2903,-31.2282 72.5952,-29 77.6521,-27.4575 83.0477,-26.0589 88.3842,-24.816"/>
<polygon fill="green" stroke="green" points="89.4422,-28.1677 98.4691,-22.621 87.9535,-21.3279 89.4422,-28.1677"/>
<text text-anchor="middle" x="76.0952" y="-32.8" font-family="Times,serif" font-size="14.00">6</text>
</g>
<!-- start&#45;&gt;orgapacheslingsecurityimplContentDispositionFilterRewriterResponse2941287212841 -->
<g id="edge2" class="edge"><title>start&#45;&gt;orgapacheslingsecurityimplContentDispositionFilterRewriterResponse2941287212841</title>
<path fill="none" stroke="red" d="M40.7904,-30.9835C48.796,-22.0757 60.0228,-11.8364 72.5952,-7 78.8234,-4.60411 85.6776,-4.40596 92.3217,-5.36442"/>
<polygon fill="red" stroke="red" points="91.942,-8.86741 102.469,-7.673 93.4949,-2.04181 91.942,-8.86741"/>
<text text-anchor="middle" x="76.0952" y="-10.8" font-family="Times,serif" font-size="14.00">2</text>
</g>
<!-- orgapacheslingsecurityimplContentDispositionFilterRewriterResponse2881255412523&#45;&gt;ok -->
<g id="edge8" class="edge"><title>orgapacheslingsecurityimplContentDispositionFilterRewriterResponse2881255412523&#45;&gt;ok</title>
<path fill="none" stroke="green" d="M151.058,-94.389C157.983,-96.8349 165.614,-99.2671 172.79,-101 177.587,-102.158 182.688,-103.143 187.737,-103.974"/>
<polygon fill="green" stroke="green" points="187.515,-107.479 197.918,-105.473 188.535,-100.554 187.515,-107.479"/>
<text text-anchor="middle" x="176.29" y="-105.8" font-family="Times,serif" font-size="14.00">5</text>
</g>
<!-- orgapacheslingsecurityimplContentDispositionFilterRewriterResponse2881255412523&#45;&gt;ko -->
<g id="edge7" class="edge"><title>orgapacheslingsecurityimplContentDispositionFilterRewriterResponse2881255412523&#45;&gt;ko</title>
<path fill="none" stroke="red" d="M150.987,-75.656C160.09,-71.9232 170.511,-67.4567 179.79,-63 184.79,-60.5984 190.029,-57.9046 195.077,-55.2131"/>
<polygon fill="red" stroke="red" points="196.752,-58.2864 203.865,-50.4344 193.408,-52.1369 196.752,-58.2864"/>
<text text-anchor="middle" x="176.29" y="-68.8" font-family="Times,serif" font-size="14.00">3</text>
</g>
<!-- orgapacheslingsecurityimplContentDispositionFilterRewriterResponse2941287212841&#45;&gt;ok -->
<g id="edge4" class="edge"><title>orgapacheslingsecurityimplContentDispositionFilterRewriterResponse2941287212841&#45;&gt;ok</title>
<path fill="none" stroke="green" d="M151.267,-26.8002C160.814,-31.0446 171.475,-36.7974 179.79,-44 186.691,-49.9775 198.604,-67.5401 208.294,-82.7584"/>
<polygon fill="green" stroke="green" points="205.404,-84.7377 213.689,-91.3424 211.331,-81.0132 205.404,-84.7377"/>
<text text-anchor="middle" x="176.29" y="-47.8" font-family="Times,serif" font-size="14.00">6</text>
</g>
<!-- orgapacheslingsecurityimplContentDispositionFilterRewriterResponse2941287212841&#45;&gt;ko -->
<g id="edge3" class="edge"><title>orgapacheslingsecurityimplContentDispositionFilterRewriterResponse2941287212841&#45;&gt;ko</title>
<path fill="none" stroke="red" d="M151.862,-9.8059C160.782,-8.0001 170.854,-7.32014 179.79,-10 186.502,-12.013 193.137,-15.4174 199.139,-19.2005"/>
<polygon fill="red" stroke="red" points="197.194,-22.1108 207.416,-24.8961 201.162,-16.3441 197.194,-22.1108"/>
<text text-anchor="middle" x="176.29" y="-13.8" font-family="Times,serif" font-size="14.00">2</text>
</g>
</g>
</svg>
